<?xml version="1.0" encoding="utf-8" standalone="no"?>
<!DOCTYPE svg PUBLIC "-//W3C//DTD SVG 1.1//EN"
  "http://www.w3.org/Graphics/SVG/1.1/DTD/svg11.dtd">
<svg xmlns:xlink="http://www.w3.org/1999/xlink" width="1382.4pt" height="631.44pt" viewBox="0 0 1382.4 631.44" xmlns="http://www.w3.org/2000/svg" version="1.1">
 <metadata>
  <rdf:RDF xmlns:dc="http://purl.org/dc/elements/1.1/" xmlns:cc="http://creativecommons.org/ns#" xmlns:rdf="http://www.w3.org/1999/02/22-rdf-syntax-ns#">
   <cc:Work>
    <dc:type rdf:resource="http://purl.org/dc/dcmitype/StillImage"/>
    <dc:date>2023-12-14T15:56:56.465610</dc:date>
    <dc:format>image/svg+xml</dc:format>
    <dc:creator>
     <cc:Agent>
      <dc:title>Matplotlib v3.8.1, https://matplotlib.org/</dc:title>
     </cc:Agent>
    </dc:creator>
   </cc:Work>
  </rdf:RDF>
 </metadata>
 <defs>
  <style type="text/css">*{stroke-linejoin: round; stroke-linecap: butt}</style>
 </defs>
 <g id="figure_1">
  <g id="patch_1">
   <path d="M 0 631.44 
L 1382.4 631.44 
L 1382.4 0 
L 0 0 
z
" style="fill: #ffffff"/>
  </g>
  <g id="axes_1">
   <g id="patch_2">
    <path d="M 150.413054 446.918073 
L 1350 446.918073 
L 1350 49.112 
L 150.413054 49.112 
z
" style="fill: #ffffff"/>
   </g>
   <g id="patch_3">
    <path d="M 241.740642 118696.4227 
L 252.780915 118696.4227 
L 252.780915 236.054241 
L 241.740642 236.054241 
z
" clip-path="url(#pde02948422)" style="fill: #595959"/>
   </g>
   <g id="patch_4">
    <path d="M 303.07549 118696.4227 
L 314.115762 118696.4227 
L 314.115762 234.780315 
L 303.07549 234.780315 
z
" clip-path="url(#pde02948422)" style="fill: #595959"/>
   </g>
   <g id="patch_5">
    <path d="M 364.410337 118696.4227 
L 375.450609 118696.4227 
L 375.450609 241.890247 
L 364.410337 241.890247 
z
" clip-path="url(#pde02948422)" style="fill: #595959"/>
   </g>
   <g id="patch_6">
    <path d="M 425.745184 118696.4227 
L 436.785457 118696.4227 
L 436.785457 92.577422 
L 425.745184 92.577422 
z
" clip-path="url(#pde02948422)" style="fill: #595959"/>
   </g>
   <g id="patch_7">
    <path d="M 487.080032 118696.4227 
L 498.120304 118696.4227 
L 498.120304 92.798827 
L 487.080032 92.798827 
z
" clip-path="url(#pde02948422)" style="fill: #595959"/>
   </g>
   <g id="patch_8">
    <path d="M 548.414879 118696.4227 
L 559.455152 118696.4227 
L 559.455152 92.901328 
L 548.414879 92.901328 
z
" clip-path="url(#pde02948422)" style="fill: #595959"/>
   </g>
   <g id="patch_9">
    <path d="M 609.749727 118696.4227 
L 620.789999 118696.4227 
L 620.789999 92.686662 
L 609.749727 92.686662 
z
" clip-path="url(#pde02948422)" style="fill: #595959"/>
   </g>
   <g id="patch_10">
    <path d="M 671.084574 118696.4227 
L 682.124847 118696.4227 
L 682.124847 235.798882 
L 671.084574 235.798882 
z
" clip-path="url(#pde02948422)" style="fill: #595959"/>
   </g>
   <g id="patch_11">
    <path d="M 732.419421 118696.4227 
L 743.459694 118696.4227 
L 743.459694 238.031001 
L 732.419421 238.031001 
z
" clip-path="url(#pde02948422)" style="fill: #595959"/>
   </g>
   <g id="patch_12">
    <path d="M 793.754269 118696.4227 
L 804.794541 118696.4227 
L 804.794541 234.668747 
L 793.754269 234.668747 
z
" clip-path="url(#pde02948422)" style="fill: #595959"/>
   </g>
   <g id="patch_13">
    <path d="M 855.089116 118696.4227 
L 866.129389 118696.4227 
L 866.129389 236.991353 
L 855.089116 236.991353 
z
" clip-path="url(#pde02948422)" style="fill: #595959"/>
   </g>
   <g id="patch_14">
    <path d="M 916.423964 118696.4227 
L 927.464236 118696.4227 
L 927.464236 125.876867 
L 916.423964 125.876867 
z
" clip-path="url(#pde02948422)" style="fill: #595959"/>
   </g>
   <g id="patch_15">
    <path d="M 977.758811 118696.4227 
L 988.799084 118696.4227 
L 988.799084 125.757948 
L 977.758811 125.757948 
z
" clip-path="url(#pde02948422)" style="fill: #595959"/>
   </g>
   <g id="patch_16">
    <path d="M 1039.093658 118696.4227 
L 1050.133931 118696.4227 
L 1050.133931 125.639304 
L 1039.093658 125.639304 
z
" clip-path="url(#pde02948422)" style="fill: #595959"/>
   </g>
   <g id="patch_17">
    <path d="M 1100.428506 118696.4227 
L 1111.468778 118696.4227 
L 1111.468778 125.520933 
L 1100.428506 125.520933 
z
" clip-path="url(#pde02948422)" style="fill: #595959"/>
   </g>
   <g id="patch_18">
    <path d="M 1161.763353 118696.4227 
L 1172.803626 118696.4227 
L 1172.803626 125.519966 
L 1161.763353 125.519966 
z
" clip-path="url(#pde02948422)" style="fill: #595959"/>
   </g>
   <g id="patch_19">
    <path d="M 1223.098201 118696.4227 
L 1234.138473 118696.4227 
L 1234.138473 209.99974 
L 1223.098201 209.99974 
z
" clip-path="url(#pde02948422)" style="fill: #595959"/>
   </g>
   <g id="patch_20">
    <path d="M 1284.433048 118696.4227 
L 1295.473321 118696.4227 
L 1295.473321 234.05907 
L 1284.433048 234.05907 
z
" clip-path="url(#pde02948422)" style="fill: #595959"/>
   </g>
   <g id="patch_21">
    <path d="M 229.473673 118696.4227 
L 240.513945 118696.4227 
L 240.513945 280.869182 
L 229.473673 280.869182 
z
" clip-path="url(#pde02948422)" style="fill: #ababab"/>
   </g>
   <g id="patch_22">
    <path d="M 290.80852 118696.4227 
L 301.848793 118696.4227 
L 301.848793 277.869777 
L 290.80852 277.869777 
z
" clip-path="url(#pde02948422)" style="fill: #ababab"/>
   </g>
   <g id="patch_23">
    <path d="M 352.143367 118696.4227 
L 363.18364 118696.4227 
L 363.18364 307.688747 
L 352.143367 307.688747 
z
" clip-path="url(#pde02948422)" style="fill: #ababab"/>
   </g>
   <g id="patch_24">
    <path d="M 413.478215 118696.4227 
L 424.518487 118696.4227 
L 424.518487 67.194094 
L 413.478215 67.194094 
z
" clip-path="url(#pde02948422)" style="fill: #ababab"/>
   </g>
   <g id="patch_25">
    <path d="M 474.813062 118696.4227 
L 485.853335 118696.4227 
L 485.853335 67.328944 
L 474.813062 67.328944 
z
" clip-path="url(#pde02948422)" style="fill: #ababab"/>
   </g>
   <g id="patch_26">
    <path d="M 536.14791 118696.4227 
L 547.188182 118696.4227 
L 547.188182 67.391263 
L 536.14791 67.391263 
z
" clip-path="url(#pde02948422)" style="fill: #ababab"/>
   </g>
   <g id="patch_27">
    <path d="M 597.482757 118696.4227 
L 608.52303 118696.4227 
L 608.52303 67.260651 
L 597.482757 67.260651 
z
" clip-path="url(#pde02948422)" style="fill: #ababab"/>
   </g>
   <g id="patch_28">
    <path d="M 658.817605 118696.4227 
L 669.857877 118696.4227 
L 669.857877 283.618981 
L 658.817605 283.618981 
z
" clip-path="url(#pde02948422)" style="fill: #ababab"/>
   </g>
   <g id="patch_29">
    <path d="M 720.152452 118696.4227 
L 731.192724 118696.4227 
L 731.192724 289.488531 
L 720.152452 289.488531 
z
" clip-path="url(#pde02948422)" style="fill: #ababab"/>
   </g>
   <g id="patch_30">
    <path d="M 781.487299 118696.4227 
L 792.527572 118696.4227 
L 792.527572 280.796616 
L 781.487299 280.796616 
z
" clip-path="url(#pde02948422)" style="fill: #ababab"/>
   </g>
   <g id="patch_31">
    <path d="M 842.822147 118696.4227 
L 853.862419 118696.4227 
L 853.862419 286.703023 
L 842.822147 286.703023 
z
" clip-path="url(#pde02948422)" style="fill: #ababab"/>
   </g>
   <g id="patch_32">
    <path d="M 904.156994 118696.4227 
L 915.197267 118696.4227 
L 915.197267 102.6503 
L 904.156994 102.6503 
z
" clip-path="url(#pde02948422)" style="fill: #ababab"/>
   </g>
   <g id="patch_33">
    <path d="M 965.491842 118696.4227 
L 976.532114 118696.4227 
L 976.532114 102.574637 
L 965.491842 102.574637 
z
" clip-path="url(#pde02948422)" style="fill: #ababab"/>
   </g>
   <g id="patch_34">
    <path d="M 1026.826689 118696.4227 
L 1037.866962 118696.4227 
L 1037.866962 102.499085 
L 1026.826689 102.499085 
z
" clip-path="url(#pde02948422)" style="fill: #ababab"/>
   </g>
   <g id="patch_35">
    <path d="M 1088.161536 118696.4227 
L 1099.201809 118696.4227 
L 1099.201809 102.423645 
L 1088.161536 102.423645 
z
" clip-path="url(#pde02948422)" style="fill: #ababab"/>
   </g>
   <g id="patch_36">
    <path d="M 1149.496384 118696.4227 
L 1160.536656 118696.4227 
L 1160.536656 102.423028 
L 1149.496384 102.423028 
z
" clip-path="url(#pde02948422)" style="fill: #ababab"/>
   </g>
   <g id="patch_37">
    <path d="M 1210.831231 118696.4227 
L 1221.871504 118696.4227 
L 1221.871504 213.493111 
L 1210.831231 213.493111 
z
" clip-path="url(#pde02948422)" style="fill: #ababab"/>
   </g>
   <g id="patch_38">
    <path d="M 1272.166079 118696.4227 
L 1283.206351 118696.4227 
L 1283.206351 271.435414 
L 1272.166079 271.435414 
z
" clip-path="url(#pde02948422)" style="fill: #ababab"/>
   </g>
   <g id="patch_39">
    <path d="M 217.206703 118696.4227 
L 228.246976 118696.4227 
L 228.246976 395.608632 
L 217.206703 395.608632 
z
" clip-path="url(#pde02948422)" style="fill: #ff800e"/>
   </g>
   <g id="patch_40">
    <path d="M 278.541551 118696.4227 
L 289.581823 118696.4227 
L 289.581823 373.739993 
L 278.541551 373.739993 
z
" clip-path="url(#pde02948422)" style="fill: #ff800e"/>
   </g>
   <g id="patch_41">
    <path d="M 339.876398 118696.4227 
L 350.91667 118696.4227 
L 350.91667 353.193311 
L 339.876398 353.193311 
z
" clip-path="url(#pde02948422)" style="fill: #ff800e"/>
   </g>
   <g id="patch_42">
    <path d="M 401.211245 118696.4227 
L 412.251518 118696.4227 
L 412.251518 266.955252 
L 401.211245 266.955252 
z
" clip-path="url(#pde02948422)" style="fill: #ff800e"/>
   </g>
   <g id="patch_43">
    <path d="M 462.546093 118696.4227 
L 473.586365 118696.4227 
L 473.586365 273.981924 
L 462.546093 273.981924 
z
" clip-path="url(#pde02948422)" style="fill: #ff800e"/>
   </g>
   <g id="patch_44">
    <path d="M 523.88094 118696.4227 
L 534.921213 118696.4227 
L 534.921213 277.581424 
L 523.88094 277.581424 
z
" clip-path="url(#pde02948422)" style="fill: #ff800e"/>
   </g>
   <g id="patch_45">
    <path d="M 585.215788 118696.4227 
L 596.25606 118696.4227 
L 596.25606 270.305994 
L 585.215788 270.305994 
z
" clip-path="url(#pde02948422)" style="fill: #ff800e"/>
   </g>
   <g id="patch_46">
    <path d="M 646.550635 118696.4227 
L 657.590908 118696.4227 
L 657.590908 361.784501 
L 646.550635 361.784501 
z
" clip-path="url(#pde02948422)" style="fill: #ff800e"/>
   </g>
   <g id="patch_47">
    <path d="M 707.885482 118696.4227 
L 718.925755 118696.4227 
L 718.925755 395.601746 
L 707.885482 395.601746 
z
" clip-path="url(#pde02948422)" style="fill: #ff800e"/>
   </g>
   <g id="patch_48">
    <path d="M 769.22033 118696.4227 
L 780.260602 118696.4227 
L 780.260602 350.219784 
L 769.22033 350.219784 
z
" clip-path="url(#pde02948422)" style="fill: #ff800e"/>
   </g>
   <g id="patch_49">
    <path d="M 830.555177 118696.4227 
L 841.59545 118696.4227 
L 841.59545 377.304007 
L 830.555177 377.304007 
z
" clip-path="url(#pde02948422)" style="fill: #ff800e"/>
   </g>
   <g id="patch_50">
    <path d="M 891.890025 118696.4227 
L 902.930297 118696.4227 
L 902.930297 310.726312 
L 891.890025 310.726312 
z
" clip-path="url(#pde02948422)" style="fill: #ff800e"/>
   </g>
   <g id="patch_51">
    <path d="M 953.224872 118696.4227 
L 964.265145 118696.4227 
L 964.265145 306.579495 
L 953.224872 306.579495 
z
" clip-path="url(#pde02948422)" style="fill: #ff800e"/>
   </g>
   <g id="patch_52">
    <path d="M 1014.559719 118696.4227 
L 1025.599992 118696.4227 
L 1025.599992 302.743047 
L 1014.559719 302.743047 
z
" clip-path="url(#pde02948422)" style="fill: #ff800e"/>
   </g>
   <g id="patch_53">
    <path d="M 1075.894567 118696.4227 
L 1086.934839 118696.4227 
L 1086.934839 299.17367 
L 1075.894567 299.17367 
z
" clip-path="url(#pde02948422)" style="fill: #ff800e"/>
   </g>
   <g id="patch_54">
    <path d="M 1137.229414 118696.4227 
L 1148.269687 118696.4227 
L 1148.269687 298.858146 
L 1137.229414 298.858146 
z
" clip-path="url(#pde02948422)" style="fill: #ff800e"/>
   </g>
   <g id="patch_55">
    <path d="M 1198.564262 118696.4227 
L 1209.604534 118696.4227 
L 1209.604534 329.499928 
L 1198.564262 329.499928 
z
" clip-path="url(#pde02948422)" style="fill: #ff800e"/>
   </g>
   <g id="patch_56">
    <path d="M 1259.899109 118696.4227 
L 1270.939382 118696.4227 
L 1270.939382 427.308398 
L 1259.899109 427.308398 
z
" clip-path="url(#pde02948422)" style="fill: #ff800e"/>
   </g>
   <g id="patch_57">
    <path d="M 204.939734 118696.4227 
L 215.980006 118696.4227 
L 215.980006 397.257903 
L 204.939734 397.257903 
z
" clip-path="url(#pde02948422)" style="fill: #006ba4"/>
   </g>
   <g id="patch_58">
    <path d="M 266.274581 118696.4227 
L 277.314854 118696.4227 
L 277.314854 374.811009 
L 266.274581 374.811009 
z
" clip-path="url(#pde02948422)" style="fill: #006ba4"/>
   </g>
   <g id="patch_59">
    <path d="M 327.609428 118696.4227 
L 338.649701 118696.4227 
L 338.649701 353.549661 
L 327.609428 353.549661 
z
" clip-path="url(#pde02948422)" style="fill: #006ba4"/>
   </g>
   <g id="patch_60">
    <path d="M 388.944276 118696.4227 
L 399.984548 118696.4227 
L 399.984548 267.087742 
L 388.944276 267.087742 
z
" clip-path="url(#pde02948422)" style="fill: #006ba4"/>
   </g>
   <g id="patch_61">
    <path d="M 450.279123 118696.4227 
L 461.319396 118696.4227 
L 461.319396 274.133883 
L 450.279123 274.133883 
z
" clip-path="url(#pde02948422)" style="fill: #006ba4"/>
   </g>
   <g id="patch_62">
    <path d="M 511.613971 118696.4227 
L 522.654243 118696.4227 
L 522.654243 277.744442 
L 511.613971 277.744442 
z
" clip-path="url(#pde02948422)" style="fill: #006ba4"/>
   </g>
   <g id="patch_63">
    <path d="M 572.948818 118696.4227 
L 583.989091 118696.4227 
L 583.989091 270.447435 
L 572.948818 270.447435 
z
" clip-path="url(#pde02948422)" style="fill: #006ba4"/>
   </g>
   <g id="patch_64">
    <path d="M 634.283666 118696.4227 
L 645.323938 118696.4227 
L 645.323938 362.631103 
L 634.283666 362.631103 
z
" clip-path="url(#pde02948422)" style="fill: #006ba4"/>
   </g>
   <g id="patch_65">
    <path d="M 695.618513 118696.4227 
L 706.658785 118696.4227 
L 706.658785 397.250793 
L 695.618513 397.250793 
z
" clip-path="url(#pde02948422)" style="fill: #006ba4"/>
   </g>
   <g id="patch_66">
    <path d="M 756.95336 118696.4227 
L 767.993633 118696.4227 
L 767.993633 350.894456 
L 756.95336 350.894456 
z
" clip-path="url(#pde02948422)" style="fill: #006ba4"/>
   </g>
   <g id="patch_67">
    <path d="M 818.288208 118696.4227 
L 829.32848 118696.4227 
L 829.32848 378.452911 
L 818.288208 378.452911 
z
" clip-path="url(#pde02948422)" style="fill: #006ba4"/>
   </g>
   <g id="patch_68">
    <path d="M 879.623055 118696.4227 
L 890.663328 118696.4227 
L 890.663328 311.037731 
L 879.623055 311.037731 
z
" clip-path="url(#pde02948422)" style="fill: #006ba4"/>
   </g>
   <g id="patch_69">
    <path d="M 940.957903 118696.4227 
L 951.998175 118696.4227 
L 951.998175 306.866529 
L 940.957903 306.866529 
z
" clip-path="url(#pde02948422)" style="fill: #006ba4"/>
   </g>
   <g id="patch_70">
    <path d="M 1002.29275 118696.4227 
L 1013.333023 118696.4227 
L 1013.333023 303.009355 
L 1002.29275 303.009355 
z
" clip-path="url(#pde02948422)" style="fill: #006ba4"/>
   </g>
   <g id="patch_71">
    <path d="M 1063.627597 118696.4227 
L 1074.66787 118696.4227 
L 1074.66787 299.422047 
L 1063.627597 299.422047 
z
" clip-path="url(#pde02948422)" style="fill: #006ba4"/>
   </g>
   <g id="patch_72">
    <path d="M 1124.962445 118696.4227 
L 1136.002717 118696.4227 
L 1136.002717 298.981481 
L 1124.962445 298.981481 
z
" clip-path="url(#pde02948422)" style="fill: #006ba4"/>
   </g>
   <g id="patch_73">
    <path d="M 1186.297292 118696.4227 
L 1197.337565 118696.4227 
L 1197.337565 329.949499 
L 1186.297292 329.949499 
z
" clip-path="url(#pde02948422)" style="fill: #006ba4"/>
   </g>
   <g id="patch_74">
    <path d="M 1247.63214 118696.4227 
L 1258.672412 118696.4227 
L 1258.672412 428.835979 
L 1247.63214 428.835979 
z
" clip-path="url(#pde02948422)" style="fill: #006ba4"/>
   </g>
   <g id="matplotlib.axis_1">
    <g id="xtick_1">
     <g id="line2d_1">
      <path d="M 228.860324 446.918073 
L 228.860324 49.112 
" clip-path="url(#pde02948422)" style="fill: none; stroke: #b0b0b0; stroke-width: 0.8; stroke-linecap: square"/>
     </g>
     <g id="line2d_2">
      <defs>
       <path id="mab212d9709" d="M 0 0 
L 0 3.5 
" style="stroke: #000000; stroke-width: 0.8"/>
      </defs>
      <g>
       <use xlink:href="#mab212d9709" x="228.860324" y="446.918073" style="stroke: #000000; stroke-width: 0.8"/>
      </g>
     </g>
     <g id="text_1">
      <!-- Left Audio Data -->
      <g transform="translate(179.452343 514.071868) rotate(-45) scale(0.1 -0.1)">
       <defs>
        <path id="DejaVuSans-4c" d="M 628 4666 
L 1259 4666 
L 1259 531 
L 3531 531 
L 3531 0 
L 628 0 
L 628 4666 
z
" transform="scale(0.015625)"/>
        <path id="DejaVuSans-65" d="M 3597 1894 
L 3597 1613 
L 953 1613 
Q 991 1019 1311 708 
Q 1631 397 2203 397 
Q 2534 397 2845 478 
Q 3156 559 3463 722 
L 3463 178 
Q 3153 47 2828 -22 
Q 2503 -91 2169 -91 
Q 1331 -91 842 396 
Q 353 884 353 1716 
Q 353 2575 817 3079 
Q 1281 3584 2069 3584 
Q 2775 3584 3186 3129 
Q 3597 2675 3597 1894 
z
M 3022 2063 
Q 3016 2534 2758 2815 
Q 2500 3097 2075 3097 
Q 1594 3097 1305 2825 
Q 1016 2553 972 2059 
L 3022 2063 
z
" transform="scale(0.015625)"/>
        <path id="DejaVuSans-66" d="M 2375 4863 
L 2375 4384 
L 1825 4384 
Q 1516 4384 1395 4259 
Q 1275 4134 1275 3809 
L 1275 3500 
L 2222 3500 
L 2222 3053 
L 1275 3053 
L 1275 0 
L 697 0 
L 697 3053 
L 147 3053 
L 147 3500 
L 697 3500 
L 697 3744 
Q 697 4328 969 4595 
Q 1241 4863 1831 4863 
L 2375 4863 
z
" transform="scale(0.015625)"/>
        <path id="DejaVuSans-74" d="M 1172 4494 
L 1172 3500 
L 2356 3500 
L 2356 3053 
L 1172 3053 
L 1172 1153 
Q 1172 725 1289 603 
Q 1406 481 1766 481 
L 2356 481 
L 2356 0 
L 1766 0 
Q 1100 0 847 248 
Q 594 497 594 1153 
L 594 3053 
L 172 3053 
L 172 3500 
L 594 3500 
L 594 4494 
L 1172 4494 
z
" transform="scale(0.015625)"/>
        <path id="DejaVuSans-20" transform="scale(0.015625)"/>
        <path id="DejaVuSans-41" d="M 2188 4044 
L 1331 1722 
L 3047 1722 
L 2188 4044 
z
M 1831 4666 
L 2547 4666 
L 4325 0 
L 3669 0 
L 3244 1197 
L 1141 1197 
L 716 0 
L 50 0 
L 1831 4666 
z
" transform="scale(0.015625)"/>
        <path id="DejaVuSans-75" d="M 544 1381 
L 544 3500 
L 1119 3500 
L 1119 1403 
Q 1119 906 1312 657 
Q 1506 409 1894 409 
Q 2359 409 2629 706 
Q 2900 1003 2900 1516 
L 2900 3500 
L 3475 3500 
L 3475 0 
L 2900 0 
L 2900 538 
Q 2691 219 2414 64 
Q 2138 -91 1772 -91 
Q 1169 -91 856 284 
Q 544 659 544 1381 
z
M 1991 3584 
L 1991 3584 
z
" transform="scale(0.015625)"/>
        <path id="DejaVuSans-64" d="M 2906 2969 
L 2906 4863 
L 3481 4863 
L 3481 0 
L 2906 0 
L 2906 525 
Q 2725 213 2448 61 
Q 2172 -91 1784 -91 
Q 1150 -91 751 415 
Q 353 922 353 1747 
Q 353 2572 751 3078 
Q 1150 3584 1784 3584 
Q 2172 3584 2448 3432 
Q 2725 3281 2906 2969 
z
M 947 1747 
Q 947 1113 1208 752 
Q 1469 391 1925 391 
Q 2381 391 2643 752 
Q 2906 1113 2906 1747 
Q 2906 2381 2643 2742 
Q 2381 3103 1925 3103 
Q 1469 3103 1208 2742 
Q 947 2381 947 1747 
z
" transform="scale(0.015625)"/>
        <path id="DejaVuSans-69" d="M 603 3500 
L 1178 3500 
L 1178 0 
L 603 0 
L 603 3500 
z
M 603 4863 
L 1178 4863 
L 1178 4134 
L 603 4134 
L 603 4863 
z
" transform="scale(0.015625)"/>
        <path id="DejaVuSans-6f" d="M 1959 3097 
Q 1497 3097 1228 2736 
Q 959 2375 959 1747 
Q 959 1119 1226 758 
Q 1494 397 1959 397 
Q 2419 397 2687 759 
Q 2956 1122 2956 1747 
Q 2956 2369 2687 2733 
Q 2419 3097 1959 3097 
z
M 1959 3584 
Q 2709 3584 3137 3096 
Q 3566 2609 3566 1747 
Q 3566 888 3137 398 
Q 2709 -91 1959 -91 
Q 1206 -91 779 398 
Q 353 888 353 1747 
Q 353 2609 779 3096 
Q 1206 3584 1959 3584 
z
" transform="scale(0.015625)"/>
        <path id="DejaVuSans-44" d="M 1259 4147 
L 1259 519 
L 2022 519 
Q 2988 519 3436 956 
Q 3884 1394 3884 2338 
Q 3884 3275 3436 3711 
Q 2988 4147 2022 4147 
L 1259 4147 
z
M 628 4666 
L 1925 4666 
Q 3281 4666 3915 4102 
Q 4550 3538 4550 2338 
Q 4550 1131 3912 565 
Q 3275 0 1925 0 
L 628 0 
L 628 4666 
z
" transform="scale(0.015625)"/>
        <path id="DejaVuSans-61" d="M 2194 1759 
Q 1497 1759 1228 1600 
Q 959 1441 959 1056 
Q 959 750 1161 570 
Q 1363 391 1709 391 
Q 2188 391 2477 730 
Q 2766 1069 2766 1631 
L 2766 1759 
L 2194 1759 
z
M 3341 1997 
L 3341 0 
L 2766 0 
L 2766 531 
Q 2569 213 2275 61 
Q 1981 -91 1556 -91 
Q 1019 -91 701 211 
Q 384 513 384 1019 
Q 384 1609 779 1909 
Q 1175 2209 1959 2209 
L 2766 2209 
L 2766 2266 
Q 2766 2663 2505 2880 
Q 2244 3097 1772 3097 
Q 1472 3097 1187 3025 
Q 903 2953 641 2809 
L 641 3341 
Q 956 3463 1253 3523 
Q 1550 3584 1831 3584 
Q 2591 3584 2966 3190 
Q 3341 2797 3341 1997 
z
" transform="scale(0.015625)"/>
       </defs>
       <use xlink:href="#DejaVuSans-4c"/>
       <use xlink:href="#DejaVuSans-65" x="53.962891"/>
       <use xlink:href="#DejaVuSans-66" x="115.486328"/>
       <use xlink:href="#DejaVuSans-74" x="148.941406"/>
       <use xlink:href="#DejaVuSans-20" x="188.150391"/>
       <use xlink:href="#DejaVuSans-41" x="219.9375"/>
       <use xlink:href="#DejaVuSans-75" x="288.345703"/>
       <use xlink:href="#DejaVuSans-64" x="351.724609"/>
       <use xlink:href="#DejaVuSans-69" x="415.201172"/>
       <use xlink:href="#DejaVuSans-6f" x="442.984375"/>
       <use xlink:href="#DejaVuSans-20" x="504.166016"/>
       <use xlink:href="#DejaVuSans-44" x="535.953125"/>
       <use xlink:href="#DejaVuSans-61" x="612.955078"/>
       <use xlink:href="#DejaVuSans-74" x="674.234375"/>
       <use xlink:href="#DejaVuSans-61" x="713.443359"/>
      </g>
     </g>
    </g>
    <g id="xtick_2">
     <g id="line2d_3">
      <path d="M 290.195172 446.918073 
L 290.195172 49.112 
" clip-path="url(#pde02948422)" style="fill: none; stroke: #b0b0b0; stroke-width: 0.8; stroke-linecap: square"/>
     </g>
     <g id="line2d_4">
      <g>
       <use xlink:href="#mab212d9709" x="290.195172" y="446.918073" style="stroke: #000000; stroke-width: 0.8"/>
      </g>
     </g>
     <g id="text_2">
      <!-- Right Audio Data -->
      <g transform="translate(235.471736 519.387322) rotate(-45) scale(0.1 -0.1)">
       <defs>
        <path id="DejaVuSans-52" d="M 2841 2188 
Q 3044 2119 3236 1894 
Q 3428 1669 3622 1275 
L 4263 0 
L 3584 0 
L 2988 1197 
Q 2756 1666 2539 1819 
Q 2322 1972 1947 1972 
L 1259 1972 
L 1259 0 
L 628 0 
L 628 4666 
L 2053 4666 
Q 2853 4666 3247 4331 
Q 3641 3997 3641 3322 
Q 3641 2881 3436 2590 
Q 3231 2300 2841 2188 
z
M 1259 4147 
L 1259 2491 
L 2053 2491 
Q 2509 2491 2742 2702 
Q 2975 2913 2975 3322 
Q 2975 3731 2742 3939 
Q 2509 4147 2053 4147 
L 1259 4147 
z
" transform="scale(0.015625)"/>
        <path id="DejaVuSans-67" d="M 2906 1791 
Q 2906 2416 2648 2759 
Q 2391 3103 1925 3103 
Q 1463 3103 1205 2759 
Q 947 2416 947 1791 
Q 947 1169 1205 825 
Q 1463 481 1925 481 
Q 2391 481 2648 825 
Q 2906 1169 2906 1791 
z
M 3481 434 
Q 3481 -459 3084 -895 
Q 2688 -1331 1869 -1331 
Q 1566 -1331 1297 -1286 
Q 1028 -1241 775 -1147 
L 775 -588 
Q 1028 -725 1275 -790 
Q 1522 -856 1778 -856 
Q 2344 -856 2625 -561 
Q 2906 -266 2906 331 
L 2906 616 
Q 2728 306 2450 153 
Q 2172 0 1784 0 
Q 1141 0 747 490 
Q 353 981 353 1791 
Q 353 2603 747 3093 
Q 1141 3584 1784 3584 
Q 2172 3584 2450 3431 
Q 2728 3278 2906 2969 
L 2906 3500 
L 3481 3500 
L 3481 434 
z
" transform="scale(0.015625)"/>
        <path id="DejaVuSans-68" d="M 3513 2113 
L 3513 0 
L 2938 0 
L 2938 2094 
Q 2938 2591 2744 2837 
Q 2550 3084 2163 3084 
Q 1697 3084 1428 2787 
Q 1159 2491 1159 1978 
L 1159 0 
L 581 0 
L 581 4863 
L 1159 4863 
L 1159 2956 
Q 1366 3272 1645 3428 
Q 1925 3584 2291 3584 
Q 2894 3584 3203 3211 
Q 3513 2838 3513 2113 
z
" transform="scale(0.015625)"/>
       </defs>
       <use xlink:href="#DejaVuSans-52"/>
       <use xlink:href="#DejaVuSans-69" x="69.482422"/>
       <use xlink:href="#DejaVuSans-67" x="97.265625"/>
       <use xlink:href="#DejaVuSans-68" x="160.742188"/>
       <use xlink:href="#DejaVuSans-74" x="224.121094"/>
       <use xlink:href="#DejaVuSans-20" x="263.330078"/>
       <use xlink:href="#DejaVuSans-41" x="295.117188"/>
       <use xlink:href="#DejaVuSans-75" x="363.525391"/>
       <use xlink:href="#DejaVuSans-64" x="426.904297"/>
       <use xlink:href="#DejaVuSans-69" x="490.380859"/>
       <use xlink:href="#DejaVuSans-6f" x="518.164062"/>
       <use xlink:href="#DejaVuSans-20" x="579.345703"/>
       <use xlink:href="#DejaVuSans-44" x="611.132812"/>
       <use xlink:href="#DejaVuSans-61" x="688.134766"/>
       <use xlink:href="#DejaVuSans-74" x="749.414062"/>
       <use xlink:href="#DejaVuSans-61" x="788.623047"/>
      </g>
     </g>
    </g>
    <g id="xtick_3">
     <g id="line2d_5">
      <path d="M 351.530019 446.918073 
L 351.530019 49.112 
" clip-path="url(#pde02948422)" style="fill: none; stroke: #b0b0b0; stroke-width: 0.8; stroke-linecap: square"/>
     </g>
     <g id="line2d_6">
      <g>
       <use xlink:href="#mab212d9709" x="351.530019" y="446.918073" style="stroke: #000000; stroke-width: 0.8"/>
      </g>
     </g>
     <g id="text_3">
      <!-- Engine Control -->
      <g transform="translate(304.864286 511.329619) rotate(-45) scale(0.1 -0.1)">
       <defs>
        <path id="DejaVuSans-45" d="M 628 4666 
L 3578 4666 
L 3578 4134 
L 1259 4134 
L 1259 2753 
L 3481 2753 
L 3481 2222 
L 1259 2222 
L 1259 531 
L 3634 531 
L 3634 0 
L 628 0 
L 628 4666 
z
" transform="scale(0.015625)"/>
        <path id="DejaVuSans-6e" d="M 3513 2113 
L 3513 0 
L 2938 0 
L 2938 2094 
Q 2938 2591 2744 2837 
Q 2550 3084 2163 3084 
Q 1697 3084 1428 2787 
Q 1159 2491 1159 1978 
L 1159 0 
L 581 0 
L 581 3500 
L 1159 3500 
L 1159 2956 
Q 1366 3272 1645 3428 
Q 1925 3584 2291 3584 
Q 2894 3584 3203 3211 
Q 3513 2838 3513 2113 
z
" transform="scale(0.015625)"/>
        <path id="DejaVuSans-43" d="M 4122 4306 
L 4122 3641 
Q 3803 3938 3442 4084 
Q 3081 4231 2675 4231 
Q 1875 4231 1450 3742 
Q 1025 3253 1025 2328 
Q 1025 1406 1450 917 
Q 1875 428 2675 428 
Q 3081 428 3442 575 
Q 3803 722 4122 1019 
L 4122 359 
Q 3791 134 3420 21 
Q 3050 -91 2638 -91 
Q 1578 -91 968 557 
Q 359 1206 359 2328 
Q 359 3453 968 4101 
Q 1578 4750 2638 4750 
Q 3056 4750 3426 4639 
Q 3797 4528 4122 4306 
z
" transform="scale(0.015625)"/>
        <path id="DejaVuSans-72" d="M 2631 2963 
Q 2534 3019 2420 3045 
Q 2306 3072 2169 3072 
Q 1681 3072 1420 2755 
Q 1159 2438 1159 1844 
L 1159 0 
L 581 0 
L 581 3500 
L 1159 3500 
L 1159 2956 
Q 1341 3275 1631 3429 
Q 1922 3584 2338 3584 
Q 2397 3584 2469 3576 
Q 2541 3569 2628 3553 
L 2631 2963 
z
" transform="scale(0.015625)"/>
        <path id="DejaVuSans-6c" d="M 603 4863 
L 1178 4863 
L 1178 0 
L 603 0 
L 603 4863 
z
" transform="scale(0.015625)"/>
       </defs>
       <use xlink:href="#DejaVuSans-45"/>
       <use xlink:href="#DejaVuSans-6e" x="63.183594"/>
       <use xlink:href="#DejaVuSans-67" x="126.5625"/>
       <use xlink:href="#DejaVuSans-69" x="190.039062"/>
       <use xlink:href="#DejaVuSans-6e" x="217.822266"/>
       <use xlink:href="#DejaVuSans-65" x="281.201172"/>
       <use xlink:href="#DejaVuSans-20" x="342.724609"/>
       <use xlink:href="#DejaVuSans-43" x="374.511719"/>
       <use xlink:href="#DejaVuSans-6f" x="444.335938"/>
       <use xlink:href="#DejaVuSans-6e" x="505.517578"/>
       <use xlink:href="#DejaVuSans-74" x="568.896484"/>
       <use xlink:href="#DejaVuSans-72" x="608.105469"/>
       <use xlink:href="#DejaVuSans-6f" x="646.96875"/>
       <use xlink:href="#DejaVuSans-6c" x="708.150391"/>
      </g>
     </g>
    </g>
    <g id="xtick_4">
     <g id="line2d_7">
      <path d="M 412.864866 446.918073 
L 412.864866 49.112 
" clip-path="url(#pde02948422)" style="fill: none; stroke: #b0b0b0; stroke-width: 0.8; stroke-linecap: square"/>
     </g>
     <g id="line2d_8">
      <g>
       <use xlink:href="#mab212d9709" x="412.864866" y="446.918073" style="stroke: #000000; stroke-width: 0.8"/>
      </g>
     </g>
     <g id="text_4">
      <!-- FL Camera Feed -->
      <g transform="translate(361.117908 516.410845) rotate(-45) scale(0.1 -0.1)">
       <defs>
        <path id="DejaVuSans-46" d="M 628 4666 
L 3309 4666 
L 3309 4134 
L 1259 4134 
L 1259 2759 
L 3109 2759 
L 3109 2228 
L 1259 2228 
L 1259 0 
L 628 0 
L 628 4666 
z
" transform="scale(0.015625)"/>
        <path id="DejaVuSans-6d" d="M 3328 2828 
Q 3544 3216 3844 3400 
Q 4144 3584 4550 3584 
Q 5097 3584 5394 3201 
Q 5691 2819 5691 2113 
L 5691 0 
L 5113 0 
L 5113 2094 
Q 5113 2597 4934 2840 
Q 4756 3084 4391 3084 
Q 3944 3084 3684 2787 
Q 3425 2491 3425 1978 
L 3425 0 
L 2847 0 
L 2847 2094 
Q 2847 2600 2669 2842 
Q 2491 3084 2119 3084 
Q 1678 3084 1418 2786 
Q 1159 2488 1159 1978 
L 1159 0 
L 581 0 
L 581 3500 
L 1159 3500 
L 1159 2956 
Q 1356 3278 1631 3431 
Q 1906 3584 2284 3584 
Q 2666 3584 2933 3390 
Q 3200 3197 3328 2828 
z
" transform="scale(0.015625)"/>
       </defs>
       <use xlink:href="#DejaVuSans-46"/>
       <use xlink:href="#DejaVuSans-4c" x="57.519531"/>
       <use xlink:href="#DejaVuSans-20" x="113.232422"/>
       <use xlink:href="#DejaVuSans-43" x="145.019531"/>
       <use xlink:href="#DejaVuSans-61" x="214.84375"/>
       <use xlink:href="#DejaVuSans-6d" x="276.123047"/>
       <use xlink:href="#DejaVuSans-65" x="373.535156"/>
       <use xlink:href="#DejaVuSans-72" x="435.058594"/>
       <use xlink:href="#DejaVuSans-61" x="476.171875"/>
       <use xlink:href="#DejaVuSans-20" x="537.451172"/>
       <use xlink:href="#DejaVuSans-46" x="569.238281"/>
       <use xlink:href="#DejaVuSans-65" x="621.257812"/>
       <use xlink:href="#DejaVuSans-65" x="682.78125"/>
       <use xlink:href="#DejaVuSans-64" x="744.304688"/>
      </g>
     </g>
    </g>
    <g id="xtick_5">
     <g id="line2d_9">
      <path d="M 474.199714 446.918073 
L 474.199714 49.112 
" clip-path="url(#pde02948422)" style="fill: none; stroke: #b0b0b0; stroke-width: 0.8; stroke-linecap: square"/>
     </g>
     <g id="line2d_10">
      <g>
       <use xlink:href="#mab212d9709" x="474.199714" y="446.918073" style="stroke: #000000; stroke-width: 0.8"/>
      </g>
     </g>
     <g id="text_5">
      <!-- FR Camera Feed -->
      <g transform="translate(421.479379 517.384221) rotate(-45) scale(0.1 -0.1)">
       <use xlink:href="#DejaVuSans-46"/>
       <use xlink:href="#DejaVuSans-52" x="57.519531"/>
       <use xlink:href="#DejaVuSans-20" x="127.001953"/>
       <use xlink:href="#DejaVuSans-43" x="158.789062"/>
       <use xlink:href="#DejaVuSans-61" x="228.613281"/>
       <use xlink:href="#DejaVuSans-6d" x="289.892578"/>
       <use xlink:href="#DejaVuSans-65" x="387.304688"/>
       <use xlink:href="#DejaVuSans-72" x="448.828125"/>
       <use xlink:href="#DejaVuSans-61" x="489.941406"/>
       <use xlink:href="#DejaVuSans-20" x="551.220703"/>
       <use xlink:href="#DejaVuSans-46" x="583.007812"/>
       <use xlink:href="#DejaVuSans-65" x="635.027344"/>
       <use xlink:href="#DejaVuSans-65" x="696.550781"/>
       <use xlink:href="#DejaVuSans-64" x="758.074219"/>
      </g>
     </g>
    </g>
    <g id="xtick_6">
     <g id="line2d_11">
      <path d="M 535.534561 446.918073 
L 535.534561 49.112 
" clip-path="url(#pde02948422)" style="fill: none; stroke: #b0b0b0; stroke-width: 0.8; stroke-linecap: square"/>
     </g>
     <g id="line2d_12">
      <g>
       <use xlink:href="#mab212d9709" x="535.534561" y="446.918073" style="stroke: #000000; stroke-width: 0.8"/>
      </g>
     </g>
     <g id="text_6">
      <!-- RL Camera Feed -->
      <g transform="translate(482.941285 517.257163) rotate(-45) scale(0.1 -0.1)">
       <use xlink:href="#DejaVuSans-52"/>
       <use xlink:href="#DejaVuSans-4c" x="69.482422"/>
       <use xlink:href="#DejaVuSans-20" x="125.195312"/>
       <use xlink:href="#DejaVuSans-43" x="156.982422"/>
       <use xlink:href="#DejaVuSans-61" x="226.806641"/>
       <use xlink:href="#DejaVuSans-6d" x="288.085938"/>
       <use xlink:href="#DejaVuSans-65" x="385.498047"/>
       <use xlink:href="#DejaVuSans-72" x="447.021484"/>
       <use xlink:href="#DejaVuSans-61" x="488.134766"/>
       <use xlink:href="#DejaVuSans-20" x="549.414062"/>
       <use xlink:href="#DejaVuSans-46" x="581.201172"/>
       <use xlink:href="#DejaVuSans-65" x="633.220703"/>
       <use xlink:href="#DejaVuSans-65" x="694.744141"/>
       <use xlink:href="#DejaVuSans-64" x="756.267578"/>
      </g>
     </g>
    </g>
    <g id="xtick_7">
     <g id="line2d_13">
      <path d="M 596.869409 446.918073 
L 596.869409 49.112 
" clip-path="url(#pde02948422)" style="fill: none; stroke: #b0b0b0; stroke-width: 0.8; stroke-linecap: square"/>
     </g>
     <g id="line2d_14">
      <g>
       <use xlink:href="#mab212d9709" x="596.869409" y="446.918073" style="stroke: #000000; stroke-width: 0.8"/>
      </g>
     </g>
     <g id="text_7">
      <!-- RR Camera Feed -->
      <g transform="translate(543.302755 518.23054) rotate(-45) scale(0.1 -0.1)">
       <use xlink:href="#DejaVuSans-52"/>
       <use xlink:href="#DejaVuSans-52" x="69.482422"/>
       <use xlink:href="#DejaVuSans-20" x="138.964844"/>
       <use xlink:href="#DejaVuSans-43" x="170.751953"/>
       <use xlink:href="#DejaVuSans-61" x="240.576172"/>
       <use xlink:href="#DejaVuSans-6d" x="301.855469"/>
       <use xlink:href="#DejaVuSans-65" x="399.267578"/>
       <use xlink:href="#DejaVuSans-72" x="460.791016"/>
       <use xlink:href="#DejaVuSans-61" x="501.904297"/>
       <use xlink:href="#DejaVuSans-20" x="563.183594"/>
       <use xlink:href="#DejaVuSans-46" x="594.970703"/>
       <use xlink:href="#DejaVuSans-65" x="646.990234"/>
       <use xlink:href="#DejaVuSans-65" x="708.513672"/>
       <use xlink:href="#DejaVuSans-64" x="770.037109"/>
      </g>
     </g>
    </g>
    <g id="xtick_8">
     <g id="line2d_15">
      <path d="M 658.204256 446.918073 
L 658.204256 49.112 
" clip-path="url(#pde02948422)" style="fill: none; stroke: #b0b0b0; stroke-width: 0.8; stroke-linecap: square"/>
     </g>
     <g id="line2d_16">
      <g>
       <use xlink:href="#mab212d9709" x="658.204256" y="446.918073" style="stroke: #000000; stroke-width: 0.8"/>
      </g>
     </g>
     <g id="text_8">
      <!-- FL Ultrasonic -->
      <g transform="translate(617.827354 505.040788) rotate(-45) scale(0.1 -0.1)">
       <defs>
        <path id="DejaVuSans-55" d="M 556 4666 
L 1191 4666 
L 1191 1831 
Q 1191 1081 1462 751 
Q 1734 422 2344 422 
Q 2950 422 3222 751 
Q 3494 1081 3494 1831 
L 3494 4666 
L 4128 4666 
L 4128 1753 
Q 4128 841 3676 375 
Q 3225 -91 2344 -91 
Q 1459 -91 1007 375 
Q 556 841 556 1753 
L 556 4666 
z
" transform="scale(0.015625)"/>
        <path id="DejaVuSans-73" d="M 2834 3397 
L 2834 2853 
Q 2591 2978 2328 3040 
Q 2066 3103 1784 3103 
Q 1356 3103 1142 2972 
Q 928 2841 928 2578 
Q 928 2378 1081 2264 
Q 1234 2150 1697 2047 
L 1894 2003 
Q 2506 1872 2764 1633 
Q 3022 1394 3022 966 
Q 3022 478 2636 193 
Q 2250 -91 1575 -91 
Q 1294 -91 989 -36 
Q 684 19 347 128 
L 347 722 
Q 666 556 975 473 
Q 1284 391 1588 391 
Q 1994 391 2212 530 
Q 2431 669 2431 922 
Q 2431 1156 2273 1281 
Q 2116 1406 1581 1522 
L 1381 1569 
Q 847 1681 609 1914 
Q 372 2147 372 2553 
Q 372 3047 722 3315 
Q 1072 3584 1716 3584 
Q 2034 3584 2315 3537 
Q 2597 3491 2834 3397 
z
" transform="scale(0.015625)"/>
        <path id="DejaVuSans-63" d="M 3122 3366 
L 3122 2828 
Q 2878 2963 2633 3030 
Q 2388 3097 2138 3097 
Q 1578 3097 1268 2742 
Q 959 2388 959 1747 
Q 959 1106 1268 751 
Q 1578 397 2138 397 
Q 2388 397 2633 464 
Q 2878 531 3122 666 
L 3122 134 
Q 2881 22 2623 -34 
Q 2366 -91 2075 -91 
Q 1284 -91 818 406 
Q 353 903 353 1747 
Q 353 2603 823 3093 
Q 1294 3584 2113 3584 
Q 2378 3584 2631 3529 
Q 2884 3475 3122 3366 
z
" transform="scale(0.015625)"/>
       </defs>
       <use xlink:href="#DejaVuSans-46"/>
       <use xlink:href="#DejaVuSans-4c" x="57.519531"/>
       <use xlink:href="#DejaVuSans-20" x="113.232422"/>
       <use xlink:href="#DejaVuSans-55" x="145.019531"/>
       <use xlink:href="#DejaVuSans-6c" x="218.212891"/>
       <use xlink:href="#DejaVuSans-74" x="245.996094"/>
       <use xlink:href="#DejaVuSans-72" x="285.205078"/>
       <use xlink:href="#DejaVuSans-61" x="326.318359"/>
       <use xlink:href="#DejaVuSans-73" x="387.597656"/>
       <use xlink:href="#DejaVuSans-6f" x="439.697266"/>
       <use xlink:href="#DejaVuSans-6e" x="500.878906"/>
       <use xlink:href="#DejaVuSans-69" x="564.257812"/>
       <use xlink:href="#DejaVuSans-63" x="592.041016"/>
      </g>
     </g>
    </g>
    <g id="xtick_9">
     <g id="line2d_17">
      <path d="M 719.539103 446.918073 
L 719.539103 49.112 
" clip-path="url(#pde02948422)" style="fill: none; stroke: #b0b0b0; stroke-width: 0.8; stroke-linecap: square"/>
     </g>
     <g id="line2d_18">
      <g>
       <use xlink:href="#mab212d9709" x="719.539103" y="446.918073" style="stroke: #000000; stroke-width: 0.8"/>
      </g>
     </g>
     <g id="text_9">
      <!-- FR Ultrasonic -->
      <g transform="translate(678.188825 506.014165) rotate(-45) scale(0.1 -0.1)">
       <use xlink:href="#DejaVuSans-46"/>
       <use xlink:href="#DejaVuSans-52" x="57.519531"/>
       <use xlink:href="#DejaVuSans-20" x="127.001953"/>
       <use xlink:href="#DejaVuSans-55" x="158.789062"/>
       <use xlink:href="#DejaVuSans-6c" x="231.982422"/>
       <use xlink:href="#DejaVuSans-74" x="259.765625"/>
       <use xlink:href="#DejaVuSans-72" x="298.974609"/>
       <use xlink:href="#DejaVuSans-61" x="340.087891"/>
       <use xlink:href="#DejaVuSans-73" x="401.367188"/>
       <use xlink:href="#DejaVuSans-6f" x="453.466797"/>
       <use xlink:href="#DejaVuSans-6e" x="514.648438"/>
       <use xlink:href="#DejaVuSans-69" x="578.027344"/>
       <use xlink:href="#DejaVuSans-63" x="605.810547"/>
      </g>
     </g>
    </g>
    <g id="xtick_10">
     <g id="line2d_19">
      <path d="M 780.873951 446.918073 
L 780.873951 49.112 
" clip-path="url(#pde02948422)" style="fill: none; stroke: #b0b0b0; stroke-width: 0.8; stroke-linecap: square"/>
     </g>
     <g id="line2d_20">
      <g>
       <use xlink:href="#mab212d9709" x="780.873951" y="446.918073" style="stroke: #000000; stroke-width: 0.8"/>
      </g>
     </g>
     <g id="text_10">
      <!-- RL Ultrasonic -->
      <g transform="translate(739.65073 505.887107) rotate(-45) scale(0.1 -0.1)">
       <use xlink:href="#DejaVuSans-52"/>
       <use xlink:href="#DejaVuSans-4c" x="69.482422"/>
       <use xlink:href="#DejaVuSans-20" x="125.195312"/>
       <use xlink:href="#DejaVuSans-55" x="156.982422"/>
       <use xlink:href="#DejaVuSans-6c" x="230.175781"/>
       <use xlink:href="#DejaVuSans-74" x="257.958984"/>
       <use xlink:href="#DejaVuSans-72" x="297.167969"/>
       <use xlink:href="#DejaVuSans-61" x="338.28125"/>
       <use xlink:href="#DejaVuSans-73" x="399.560547"/>
       <use xlink:href="#DejaVuSans-6f" x="451.660156"/>
       <use xlink:href="#DejaVuSans-6e" x="512.841797"/>
       <use xlink:href="#DejaVuSans-69" x="576.220703"/>
       <use xlink:href="#DejaVuSans-63" x="604.003906"/>
      </g>
     </g>
    </g>
    <g id="xtick_11">
     <g id="line2d_21">
      <path d="M 842.208798 446.918073 
L 842.208798 49.112 
" clip-path="url(#pde02948422)" style="fill: none; stroke: #b0b0b0; stroke-width: 0.8; stroke-linecap: square"/>
     </g>
     <g id="line2d_22">
      <g>
       <use xlink:href="#mab212d9709" x="842.208798" y="446.918073" style="stroke: #000000; stroke-width: 0.8"/>
      </g>
     </g>
     <g id="text_11">
      <!-- RR Ultrasonic -->
      <g transform="translate(800.012201 506.860484) rotate(-45) scale(0.1 -0.1)">
       <use xlink:href="#DejaVuSans-52"/>
       <use xlink:href="#DejaVuSans-52" x="69.482422"/>
       <use xlink:href="#DejaVuSans-20" x="138.964844"/>
       <use xlink:href="#DejaVuSans-55" x="170.751953"/>
       <use xlink:href="#DejaVuSans-6c" x="243.945312"/>
       <use xlink:href="#DejaVuSans-74" x="271.728516"/>
       <use xlink:href="#DejaVuSans-72" x="310.9375"/>
       <use xlink:href="#DejaVuSans-61" x="352.050781"/>
       <use xlink:href="#DejaVuSans-73" x="413.330078"/>
       <use xlink:href="#DejaVuSans-6f" x="465.429688"/>
       <use xlink:href="#DejaVuSans-6e" x="526.611328"/>
       <use xlink:href="#DejaVuSans-69" x="589.990234"/>
       <use xlink:href="#DejaVuSans-63" x="617.773438"/>
      </g>
     </g>
    </g>
    <g id="xtick_12">
     <g id="line2d_23">
      <path d="M 903.543646 446.918073 
L 903.543646 49.112 
" clip-path="url(#pde02948422)" style="fill: none; stroke: #b0b0b0; stroke-width: 0.8; stroke-linecap: square"/>
     </g>
     <g id="line2d_24">
      <g>
       <use xlink:href="#mab212d9709" x="903.543646" y="446.918073" style="stroke: #000000; stroke-width: 0.8"/>
      </g>
     </g>
     <g id="text_12">
      <!-- FL Wheel Control -->
      <g transform="translate(848.719668 519.487864) rotate(-45) scale(0.1 -0.1)">
       <defs>
        <path id="DejaVuSans-57" d="M 213 4666 
L 850 4666 
L 1831 722 
L 2809 4666 
L 3519 4666 
L 4500 722 
L 5478 4666 
L 6119 4666 
L 4947 0 
L 4153 0 
L 3169 4050 
L 2175 0 
L 1381 0 
L 213 4666 
z
" transform="scale(0.015625)"/>
       </defs>
       <use xlink:href="#DejaVuSans-46"/>
       <use xlink:href="#DejaVuSans-4c" x="57.519531"/>
       <use xlink:href="#DejaVuSans-20" x="113.232422"/>
       <use xlink:href="#DejaVuSans-57" x="145.019531"/>
       <use xlink:href="#DejaVuSans-68" x="243.896484"/>
       <use xlink:href="#DejaVuSans-65" x="307.275391"/>
       <use xlink:href="#DejaVuSans-65" x="368.798828"/>
       <use xlink:href="#DejaVuSans-6c" x="430.322266"/>
       <use xlink:href="#DejaVuSans-20" x="458.105469"/>
       <use xlink:href="#DejaVuSans-43" x="489.892578"/>
       <use xlink:href="#DejaVuSans-6f" x="559.716797"/>
       <use xlink:href="#DejaVuSans-6e" x="620.898438"/>
       <use xlink:href="#DejaVuSans-74" x="684.277344"/>
       <use xlink:href="#DejaVuSans-72" x="723.486328"/>
       <use xlink:href="#DejaVuSans-6f" x="762.349609"/>
       <use xlink:href="#DejaVuSans-6c" x="823.53125"/>
      </g>
     </g>
    </g>
    <g id="xtick_13">
     <g id="line2d_25">
      <path d="M 964.878493 446.918073 
L 964.878493 49.112 
" clip-path="url(#pde02948422)" style="fill: none; stroke: #b0b0b0; stroke-width: 0.8; stroke-linecap: square"/>
     </g>
     <g id="line2d_26">
      <g>
       <use xlink:href="#mab212d9709" x="964.878493" y="446.918073" style="stroke: #000000; stroke-width: 0.8"/>
      </g>
     </g>
     <g id="text_13">
      <!-- FR Wheel Control -->
      <g transform="translate(909.081139 520.461241) rotate(-45) scale(0.1 -0.1)">
       <use xlink:href="#DejaVuSans-46"/>
       <use xlink:href="#DejaVuSans-52" x="57.519531"/>
       <use xlink:href="#DejaVuSans-20" x="127.001953"/>
       <use xlink:href="#DejaVuSans-57" x="158.789062"/>
       <use xlink:href="#DejaVuSans-68" x="257.666016"/>
       <use xlink:href="#DejaVuSans-65" x="321.044922"/>
       <use xlink:href="#DejaVuSans-65" x="382.568359"/>
       <use xlink:href="#DejaVuSans-6c" x="444.091797"/>
       <use xlink:href="#DejaVuSans-20" x="471.875"/>
       <use xlink:href="#DejaVuSans-43" x="503.662109"/>
       <use xlink:href="#DejaVuSans-6f" x="573.486328"/>
       <use xlink:href="#DejaVuSans-6e" x="634.667969"/>
       <use xlink:href="#DejaVuSans-74" x="698.046875"/>
       <use xlink:href="#DejaVuSans-72" x="737.255859"/>
       <use xlink:href="#DejaVuSans-6f" x="776.119141"/>
       <use xlink:href="#DejaVuSans-6c" x="837.300781"/>
      </g>
     </g>
    </g>
    <g id="xtick_14">
     <g id="line2d_27">
      <path d="M 1026.213341 446.918073 
L 1026.213341 49.112 
" clip-path="url(#pde02948422)" style="fill: none; stroke: #b0b0b0; stroke-width: 0.8; stroke-linecap: square"/>
     </g>
     <g id="line2d_28">
      <g>
       <use xlink:href="#mab212d9709" x="1026.213341" y="446.918073" style="stroke: #000000; stroke-width: 0.8"/>
      </g>
     </g>
     <g id="text_14">
      <!-- RL Wheel Control -->
      <g transform="translate(970.543045 520.334182) rotate(-45) scale(0.1 -0.1)">
       <use xlink:href="#DejaVuSans-52"/>
       <use xlink:href="#DejaVuSans-4c" x="69.482422"/>
       <use xlink:href="#DejaVuSans-20" x="125.195312"/>
       <use xlink:href="#DejaVuSans-57" x="156.982422"/>
       <use xlink:href="#DejaVuSans-68" x="255.859375"/>
       <use xlink:href="#DejaVuSans-65" x="319.238281"/>
       <use xlink:href="#DejaVuSans-65" x="380.761719"/>
       <use xlink:href="#DejaVuSans-6c" x="442.285156"/>
       <use xlink:href="#DejaVuSans-20" x="470.068359"/>
       <use xlink:href="#DejaVuSans-43" x="501.855469"/>
       <use xlink:href="#DejaVuSans-6f" x="571.679688"/>
       <use xlink:href="#DejaVuSans-6e" x="632.861328"/>
       <use xlink:href="#DejaVuSans-74" x="696.240234"/>
       <use xlink:href="#DejaVuSans-72" x="735.449219"/>
       <use xlink:href="#DejaVuSans-6f" x="774.3125"/>
       <use xlink:href="#DejaVuSans-6c" x="835.494141"/>
      </g>
     </g>
    </g>
    <g id="xtick_15">
     <g id="line2d_29">
      <path d="M 1087.548188 446.918073 
L 1087.548188 49.112 
" clip-path="url(#pde02948422)" style="fill: none; stroke: #b0b0b0; stroke-width: 0.8; stroke-linecap: square"/>
     </g>
     <g id="line2d_30">
      <g>
       <use xlink:href="#mab212d9709" x="1087.548188" y="446.918073" style="stroke: #000000; stroke-width: 0.8"/>
      </g>
     </g>
     <g id="text_15">
      <!-- RR Wheel Control -->
      <g transform="translate(1030.904515 521.307559) rotate(-45) scale(0.1 -0.1)">
       <use xlink:href="#DejaVuSans-52"/>
       <use xlink:href="#DejaVuSans-52" x="69.482422"/>
       <use xlink:href="#DejaVuSans-20" x="138.964844"/>
       <use xlink:href="#DejaVuSans-57" x="170.751953"/>
       <use xlink:href="#DejaVuSans-68" x="269.628906"/>
       <use xlink:href="#DejaVuSans-65" x="333.007812"/>
       <use xlink:href="#DejaVuSans-65" x="394.53125"/>
       <use xlink:href="#DejaVuSans-6c" x="456.054688"/>
       <use xlink:href="#DejaVuSans-20" x="483.837891"/>
       <use xlink:href="#DejaVuSans-43" x="515.625"/>
       <use xlink:href="#DejaVuSans-6f" x="585.449219"/>
       <use xlink:href="#DejaVuSans-6e" x="646.630859"/>
       <use xlink:href="#DejaVuSans-74" x="710.009766"/>
       <use xlink:href="#DejaVuSans-72" x="749.21875"/>
       <use xlink:href="#DejaVuSans-6f" x="788.082031"/>
       <use xlink:href="#DejaVuSans-6c" x="849.263672"/>
      </g>
     </g>
    </g>
    <g id="xtick_16">
     <g id="line2d_31">
      <path d="M 1148.883035 446.918073 
L 1148.883035 49.112 
" clip-path="url(#pde02948422)" style="fill: none; stroke: #b0b0b0; stroke-width: 0.8; stroke-linecap: square"/>
     </g>
     <g id="line2d_32">
      <g>
       <use xlink:href="#mab212d9709" x="1148.883035" y="446.918073" style="stroke: #000000; stroke-width: 0.8"/>
      </g>
     </g>
     <g id="text_16">
      <!-- Steering Assist -->
      <g transform="translate(1101.579801 511.96712) rotate(-45) scale(0.1 -0.1)">
       <defs>
        <path id="DejaVuSans-53" d="M 3425 4513 
L 3425 3897 
Q 3066 4069 2747 4153 
Q 2428 4238 2131 4238 
Q 1616 4238 1336 4038 
Q 1056 3838 1056 3469 
Q 1056 3159 1242 3001 
Q 1428 2844 1947 2747 
L 2328 2669 
Q 3034 2534 3370 2195 
Q 3706 1856 3706 1288 
Q 3706 609 3251 259 
Q 2797 -91 1919 -91 
Q 1588 -91 1214 -16 
Q 841 59 441 206 
L 441 856 
Q 825 641 1194 531 
Q 1563 422 1919 422 
Q 2459 422 2753 634 
Q 3047 847 3047 1241 
Q 3047 1584 2836 1778 
Q 2625 1972 2144 2069 
L 1759 2144 
Q 1053 2284 737 2584 
Q 422 2884 422 3419 
Q 422 4038 858 4394 
Q 1294 4750 2059 4750 
Q 2388 4750 2728 4690 
Q 3069 4631 3425 4513 
z
" transform="scale(0.015625)"/>
       </defs>
       <use xlink:href="#DejaVuSans-53"/>
       <use xlink:href="#DejaVuSans-74" x="63.476562"/>
       <use xlink:href="#DejaVuSans-65" x="102.685547"/>
       <use xlink:href="#DejaVuSans-65" x="164.208984"/>
       <use xlink:href="#DejaVuSans-72" x="225.732422"/>
       <use xlink:href="#DejaVuSans-69" x="266.845703"/>
       <use xlink:href="#DejaVuSans-6e" x="294.628906"/>
       <use xlink:href="#DejaVuSans-67" x="358.007812"/>
       <use xlink:href="#DejaVuSans-20" x="421.484375"/>
       <use xlink:href="#DejaVuSans-41" x="453.271484"/>
       <use xlink:href="#DejaVuSans-73" x="521.679688"/>
       <use xlink:href="#DejaVuSans-73" x="573.779297"/>
       <use xlink:href="#DejaVuSans-69" x="625.878906"/>
       <use xlink:href="#DejaVuSans-73" x="653.662109"/>
       <use xlink:href="#DejaVuSans-74" x="705.761719"/>
      </g>
     </g>
    </g>
    <g id="xtick_17">
     <g id="line2d_33">
      <path d="M 1210.217883 446.918073 
L 1210.217883 49.112 
" clip-path="url(#pde02948422)" style="fill: none; stroke: #b0b0b0; stroke-width: 0.8; stroke-linecap: square"/>
     </g>
     <g id="line2d_34">
      <g>
       <use xlink:href="#mab212d9709" x="1210.217883" y="446.918073" style="stroke: #000000; stroke-width: 0.8"/>
      </g>
     </g>
     <g id="text_17">
      <!-- GPS Signal -->
      <g transform="translate(1177.39045 497.491319) rotate(-45) scale(0.1 -0.1)">
       <defs>
        <path id="DejaVuSans-47" d="M 3809 666 
L 3809 1919 
L 2778 1919 
L 2778 2438 
L 4434 2438 
L 4434 434 
Q 4069 175 3628 42 
Q 3188 -91 2688 -91 
Q 1594 -91 976 548 
Q 359 1188 359 2328 
Q 359 3472 976 4111 
Q 1594 4750 2688 4750 
Q 3144 4750 3555 4637 
Q 3966 4525 4313 4306 
L 4313 3634 
Q 3963 3931 3569 4081 
Q 3175 4231 2741 4231 
Q 1884 4231 1454 3753 
Q 1025 3275 1025 2328 
Q 1025 1384 1454 906 
Q 1884 428 2741 428 
Q 3075 428 3337 486 
Q 3600 544 3809 666 
z
" transform="scale(0.015625)"/>
        <path id="DejaVuSans-50" d="M 1259 4147 
L 1259 2394 
L 2053 2394 
Q 2494 2394 2734 2622 
Q 2975 2850 2975 3272 
Q 2975 3691 2734 3919 
Q 2494 4147 2053 4147 
L 1259 4147 
z
M 628 4666 
L 2053 4666 
Q 2838 4666 3239 4311 
Q 3641 3956 3641 3272 
Q 3641 2581 3239 2228 
Q 2838 1875 2053 1875 
L 1259 1875 
L 1259 0 
L 628 0 
L 628 4666 
z
" transform="scale(0.015625)"/>
       </defs>
       <use xlink:href="#DejaVuSans-47"/>
       <use xlink:href="#DejaVuSans-50" x="77.490234"/>
       <use xlink:href="#DejaVuSans-53" x="137.792969"/>
       <use xlink:href="#DejaVuSans-20" x="201.269531"/>
       <use xlink:href="#DejaVuSans-53" x="233.056641"/>
       <use xlink:href="#DejaVuSans-69" x="296.533203"/>
       <use xlink:href="#DejaVuSans-67" x="324.316406"/>
       <use xlink:href="#DejaVuSans-6e" x="387.792969"/>
       <use xlink:href="#DejaVuSans-61" x="451.171875"/>
       <use xlink:href="#DejaVuSans-6c" x="512.451172"/>
      </g>
     </g>
    </g>
    <g id="xtick_18">
     <g id="line2d_35">
      <path d="M 1271.55273 446.918073 
L 1271.55273 49.112 
" clip-path="url(#pde02948422)" style="fill: none; stroke: #b0b0b0; stroke-width: 0.8; stroke-linecap: square"/>
     </g>
     <g id="line2d_36">
      <g>
       <use xlink:href="#mab212d9709" x="1271.55273" y="446.918073" style="stroke: #000000; stroke-width: 0.8"/>
      </g>
     </g>
     <g id="text_18">
      <!-- V2X Data -->
      <g transform="translate(1243.615383 492.601233) rotate(-45) scale(0.1 -0.1)">
       <defs>
        <path id="DejaVuSans-56" d="M 1831 0 
L 50 4666 
L 709 4666 
L 2188 738 
L 3669 4666 
L 4325 4666 
L 2547 0 
L 1831 0 
z
" transform="scale(0.015625)"/>
        <path id="DejaVuSans-32" d="M 1228 531 
L 3431 531 
L 3431 0 
L 469 0 
L 469 531 
Q 828 903 1448 1529 
Q 2069 2156 2228 2338 
Q 2531 2678 2651 2914 
Q 2772 3150 2772 3378 
Q 2772 3750 2511 3984 
Q 2250 4219 1831 4219 
Q 1534 4219 1204 4116 
Q 875 4013 500 3803 
L 500 4441 
Q 881 4594 1212 4672 
Q 1544 4750 1819 4750 
Q 2544 4750 2975 4387 
Q 3406 4025 3406 3419 
Q 3406 3131 3298 2873 
Q 3191 2616 2906 2266 
Q 2828 2175 2409 1742 
Q 1991 1309 1228 531 
z
" transform="scale(0.015625)"/>
        <path id="DejaVuSans-58" d="M 403 4666 
L 1081 4666 
L 2241 2931 
L 3406 4666 
L 4084 4666 
L 2584 2425 
L 4184 0 
L 3506 0 
L 2194 1984 
L 872 0 
L 191 0 
L 1856 2491 
L 403 4666 
z
" transform="scale(0.015625)"/>
       </defs>
       <use xlink:href="#DejaVuSans-56"/>
       <use xlink:href="#DejaVuSans-32" x="68.408203"/>
       <use xlink:href="#DejaVuSans-58" x="132.03125"/>
       <use xlink:href="#DejaVuSans-20" x="200.537109"/>
       <use xlink:href="#DejaVuSans-44" x="232.324219"/>
       <use xlink:href="#DejaVuSans-61" x="309.326172"/>
       <use xlink:href="#DejaVuSans-74" x="370.605469"/>
       <use xlink:href="#DejaVuSans-61" x="409.814453"/>
      </g>
     </g>
    </g>
    <g id="text_19">
     <!-- Stream -->
     <g transform="translate(732.118246 534.376558) scale(0.1 -0.1)">
      <use xlink:href="#DejaVuSans-53"/>
      <use xlink:href="#DejaVuSans-74" x="63.476562"/>
      <use xlink:href="#DejaVuSans-72" x="102.685547"/>
      <use xlink:href="#DejaVuSans-65" x="141.548828"/>
      <use xlink:href="#DejaVuSans-61" x="203.072266"/>
      <use xlink:href="#DejaVuSans-6d" x="264.351562"/>
     </g>
    </g>
   </g>
   <g id="matplotlib.axis_2">
    <g id="ytick_1">
     <g id="line2d_37">
      <path d="M 150.413054 407.664545 
L 1350 407.664545 
" clip-path="url(#pde02948422)" style="fill: none; stroke: #b0b0b0; stroke-width: 0.8; stroke-linecap: square"/>
     </g>
     <g id="line2d_38">
      <defs>
       <path id="m26d2af246c" d="M 0 0 
L -3.5 0 
" style="stroke: #000000; stroke-width: 0.8"/>
      </defs>
      <g>
       <use xlink:href="#m26d2af246c" x="150.413054" y="407.664545" style="stroke: #000000; stroke-width: 0.8"/>
      </g>
     </g>
     <g id="text_20">
      <!-- $\mathdefault{10^{1}}$ -->
      <g transform="translate(125.813054 411.463764) scale(0.1 -0.1)">
       <defs>
        <path id="DejaVuSans-31" d="M 794 531 
L 1825 531 
L 1825 4091 
L 703 3866 
L 703 4441 
L 1819 4666 
L 2450 4666 
L 2450 531 
L 3481 531 
L 3481 0 
L 794 0 
L 794 531 
z
" transform="scale(0.015625)"/>
        <path id="DejaVuSans-30" d="M 2034 4250 
Q 1547 4250 1301 3770 
Q 1056 3291 1056 2328 
Q 1056 1369 1301 889 
Q 1547 409 2034 409 
Q 2525 409 2770 889 
Q 3016 1369 3016 2328 
Q 3016 3291 2770 3770 
Q 2525 4250 2034 4250 
z
M 2034 4750 
Q 2819 4750 3233 4129 
Q 3647 3509 3647 2328 
Q 3647 1150 3233 529 
Q 2819 -91 2034 -91 
Q 1250 -91 836 529 
Q 422 1150 422 2328 
Q 422 3509 836 4129 
Q 1250 4750 2034 4750 
z
" transform="scale(0.015625)"/>
       </defs>
       <use xlink:href="#DejaVuSans-31" transform="translate(0 0.684375)"/>
       <use xlink:href="#DejaVuSans-30" transform="translate(63.623047 0.684375)"/>
       <use xlink:href="#DejaVuSans-31" transform="translate(128.203125 38.965625) scale(0.7)"/>
      </g>
     </g>
    </g>
    <g id="ytick_2">
     <g id="line2d_39">
      <path d="M 150.413054 289.493958 
L 1350 289.493958 
" clip-path="url(#pde02948422)" style="fill: none; stroke: #b0b0b0; stroke-width: 0.8; stroke-linecap: square"/>
     </g>
     <g id="line2d_40">
      <g>
       <use xlink:href="#m26d2af246c" x="150.413054" y="289.493958" style="stroke: #000000; stroke-width: 0.8"/>
      </g>
     </g>
     <g id="text_21">
      <!-- $\mathdefault{10^{2}}$ -->
      <g transform="translate(125.813054 293.293177) scale(0.1 -0.1)">
       <use xlink:href="#DejaVuSans-31" transform="translate(0 0.765625)"/>
       <use xlink:href="#DejaVuSans-30" transform="translate(63.623047 0.765625)"/>
       <use xlink:href="#DejaVuSans-32" transform="translate(128.203125 39.046875) scale(0.7)"/>
      </g>
     </g>
    </g>
    <g id="ytick_3">
     <g id="line2d_41">
      <path d="M 150.413054 171.32337 
L 1350 171.32337 
" clip-path="url(#pde02948422)" style="fill: none; stroke: #b0b0b0; stroke-width: 0.8; stroke-linecap: square"/>
     </g>
     <g id="line2d_42">
      <g>
       <use xlink:href="#m26d2af246c" x="150.413054" y="171.32337" style="stroke: #000000; stroke-width: 0.8"/>
      </g>
     </g>
     <g id="text_22">
      <!-- $\mathdefault{10^{3}}$ -->
      <g transform="translate(125.813054 175.122589) scale(0.1 -0.1)">
       <defs>
        <path id="DejaVuSans-33" d="M 2597 2516 
Q 3050 2419 3304 2112 
Q 3559 1806 3559 1356 
Q 3559 666 3084 287 
Q 2609 -91 1734 -91 
Q 1441 -91 1130 -33 
Q 819 25 488 141 
L 488 750 
Q 750 597 1062 519 
Q 1375 441 1716 441 
Q 2309 441 2620 675 
Q 2931 909 2931 1356 
Q 2931 1769 2642 2001 
Q 2353 2234 1838 2234 
L 1294 2234 
L 1294 2753 
L 1863 2753 
Q 2328 2753 2575 2939 
Q 2822 3125 2822 3475 
Q 2822 3834 2567 4026 
Q 2313 4219 1838 4219 
Q 1578 4219 1281 4162 
Q 984 4106 628 3988 
L 628 4550 
Q 988 4650 1302 4700 
Q 1616 4750 1894 4750 
Q 2613 4750 3031 4423 
Q 3450 4097 3450 3541 
Q 3450 3153 3228 2886 
Q 3006 2619 2597 2516 
z
" transform="scale(0.015625)"/>
       </defs>
       <use xlink:href="#DejaVuSans-31" transform="translate(0 0.765625)"/>
       <use xlink:href="#DejaVuSans-30" transform="translate(63.623047 0.765625)"/>
       <use xlink:href="#DejaVuSans-33" transform="translate(128.203125 39.046875) scale(0.7)"/>
      </g>
     </g>
    </g>
    <g id="ytick_4">
     <g id="line2d_43">
      <path d="M 150.413054 53.152783 
L 1350 53.152783 
" clip-path="url(#pde02948422)" style="fill: none; stroke: #b0b0b0; stroke-width: 0.8; stroke-linecap: square"/>
     </g>
     <g id="line2d_44">
      <g>
       <use xlink:href="#m26d2af246c" x="150.413054" y="53.152783" style="stroke: #000000; stroke-width: 0.8"/>
      </g>
     </g>
     <g id="text_23">
      <!-- $\mathdefault{10^{4}}$ -->
      <g transform="translate(125.813054 56.952001) scale(0.1 -0.1)">
       <defs>
        <path id="DejaVuSans-34" d="M 2419 4116 
L 825 1625 
L 2419 1625 
L 2419 4116 
z
M 2253 4666 
L 3047 4666 
L 3047 1625 
L 3713 1625 
L 3713 1100 
L 3047 1100 
L 3047 0 
L 2419 0 
L 2419 1100 
L 313 1100 
L 313 1709 
L 2253 4666 
z
" transform="scale(0.015625)"/>
       </defs>
       <use xlink:href="#DejaVuSans-31" transform="translate(0 0.684375)"/>
       <use xlink:href="#DejaVuSans-30" transform="translate(63.623047 0.684375)"/>
       <use xlink:href="#DejaVuSans-34" transform="translate(128.203125 38.965625) scale(0.7)"/>
      </g>
     </g>
    </g>
    <g id="ytick_5">
     <g id="line2d_45">
      <defs>
       <path id="mc4362b7a66" d="M 0 0 
L -2 0 
" style="stroke: #000000; stroke-width: 0.6"/>
      </defs>
      <g>
       <use xlink:href="#mc4362b7a66" x="150.413054" y="443.237437" style="stroke: #000000; stroke-width: 0.6"/>
      </g>
     </g>
    </g>
    <g id="ytick_6">
     <g id="line2d_46">
      <g>
       <use xlink:href="#mc4362b7a66" x="150.413054" y="433.880542" style="stroke: #000000; stroke-width: 0.6"/>
      </g>
     </g>
    </g>
    <g id="ytick_7">
     <g id="line2d_47">
      <g>
       <use xlink:href="#mc4362b7a66" x="150.413054" y="425.969401" style="stroke: #000000; stroke-width: 0.6"/>
      </g>
     </g>
    </g>
    <g id="ytick_8">
     <g id="line2d_48">
      <g>
       <use xlink:href="#mc4362b7a66" x="150.413054" y="419.116459" style="stroke: #000000; stroke-width: 0.6"/>
      </g>
     </g>
    </g>
    <g id="ytick_9">
     <g id="line2d_49">
      <g>
       <use xlink:href="#mc4362b7a66" x="150.413054" y="413.071735" style="stroke: #000000; stroke-width: 0.6"/>
      </g>
     </g>
    </g>
    <g id="ytick_10">
     <g id="line2d_50">
      <g>
       <use xlink:href="#mc4362b7a66" x="150.413054" y="372.091654" style="stroke: #000000; stroke-width: 0.6"/>
      </g>
     </g>
    </g>
    <g id="ytick_11">
     <g id="line2d_51">
      <g>
       <use xlink:href="#mc4362b7a66" x="150.413054" y="351.282846" style="stroke: #000000; stroke-width: 0.6"/>
      </g>
     </g>
    </g>
    <g id="ytick_12">
     <g id="line2d_52">
      <g>
       <use xlink:href="#mc4362b7a66" x="150.413054" y="336.518762" style="stroke: #000000; stroke-width: 0.6"/>
      </g>
     </g>
    </g>
    <g id="ytick_13">
     <g id="line2d_53">
      <g>
       <use xlink:href="#mc4362b7a66" x="150.413054" y="325.066849" style="stroke: #000000; stroke-width: 0.6"/>
      </g>
     </g>
    </g>
    <g id="ytick_14">
     <g id="line2d_54">
      <g>
       <use xlink:href="#mc4362b7a66" x="150.413054" y="315.709955" style="stroke: #000000; stroke-width: 0.6"/>
      </g>
     </g>
    </g>
    <g id="ytick_15">
     <g id="line2d_55">
      <g>
       <use xlink:href="#mc4362b7a66" x="150.413054" y="307.798813" style="stroke: #000000; stroke-width: 0.6"/>
      </g>
     </g>
    </g>
    <g id="ytick_16">
     <g id="line2d_56">
      <g>
       <use xlink:href="#mc4362b7a66" x="150.413054" y="300.945871" style="stroke: #000000; stroke-width: 0.6"/>
      </g>
     </g>
    </g>
    <g id="ytick_17">
     <g id="line2d_57">
      <g>
       <use xlink:href="#mc4362b7a66" x="150.413054" y="294.901147" style="stroke: #000000; stroke-width: 0.6"/>
      </g>
     </g>
    </g>
    <g id="ytick_18">
     <g id="line2d_58">
      <g>
       <use xlink:href="#mc4362b7a66" x="150.413054" y="253.921066" style="stroke: #000000; stroke-width: 0.6"/>
      </g>
     </g>
    </g>
    <g id="ytick_19">
     <g id="line2d_59">
      <g>
       <use xlink:href="#mc4362b7a66" x="150.413054" y="233.112259" style="stroke: #000000; stroke-width: 0.6"/>
      </g>
     </g>
    </g>
    <g id="ytick_20">
     <g id="line2d_60">
      <g>
       <use xlink:href="#mc4362b7a66" x="150.413054" y="218.348175" style="stroke: #000000; stroke-width: 0.6"/>
      </g>
     </g>
    </g>
    <g id="ytick_21">
     <g id="line2d_61">
      <g>
       <use xlink:href="#mc4362b7a66" x="150.413054" y="206.896262" style="stroke: #000000; stroke-width: 0.6"/>
      </g>
     </g>
    </g>
    <g id="ytick_22">
     <g id="line2d_62">
      <g>
       <use xlink:href="#mc4362b7a66" x="150.413054" y="197.539367" style="stroke: #000000; stroke-width: 0.6"/>
      </g>
     </g>
    </g>
    <g id="ytick_23">
     <g id="line2d_63">
      <g>
       <use xlink:href="#mc4362b7a66" x="150.413054" y="189.628226" style="stroke: #000000; stroke-width: 0.6"/>
      </g>
     </g>
    </g>
    <g id="ytick_24">
     <g id="line2d_64">
      <g>
       <use xlink:href="#mc4362b7a66" x="150.413054" y="182.775283" style="stroke: #000000; stroke-width: 0.6"/>
      </g>
     </g>
    </g>
    <g id="ytick_25">
     <g id="line2d_65">
      <g>
       <use xlink:href="#mc4362b7a66" x="150.413054" y="176.73056" style="stroke: #000000; stroke-width: 0.6"/>
      </g>
     </g>
    </g>
    <g id="ytick_26">
     <g id="line2d_66">
      <g>
       <use xlink:href="#mc4362b7a66" x="150.413054" y="135.750479" style="stroke: #000000; stroke-width: 0.6"/>
      </g>
     </g>
    </g>
    <g id="ytick_27">
     <g id="line2d_67">
      <g>
       <use xlink:href="#mc4362b7a66" x="150.413054" y="114.941671" style="stroke: #000000; stroke-width: 0.6"/>
      </g>
     </g>
    </g>
    <g id="ytick_28">
     <g id="line2d_68">
      <g>
       <use xlink:href="#mc4362b7a66" x="150.413054" y="100.177587" style="stroke: #000000; stroke-width: 0.6"/>
      </g>
     </g>
    </g>
    <g id="ytick_29">
     <g id="line2d_69">
      <g>
       <use xlink:href="#mc4362b7a66" x="150.413054" y="88.725674" style="stroke: #000000; stroke-width: 0.6"/>
      </g>
     </g>
    </g>
    <g id="ytick_30">
     <g id="line2d_70">
      <g>
       <use xlink:href="#mc4362b7a66" x="150.413054" y="79.36878" style="stroke: #000000; stroke-width: 0.6"/>
      </g>
     </g>
    </g>
    <g id="ytick_31">
     <g id="line2d_71">
      <g>
       <use xlink:href="#mc4362b7a66" x="150.413054" y="71.457638" style="stroke: #000000; stroke-width: 0.6"/>
      </g>
     </g>
    </g>
    <g id="ytick_32">
     <g id="line2d_72">
      <g>
       <use xlink:href="#mc4362b7a66" x="150.413054" y="64.604696" style="stroke: #000000; stroke-width: 0.6"/>
      </g>
     </g>
    </g>
    <g id="ytick_33">
     <g id="line2d_73">
      <g>
       <use xlink:href="#mc4362b7a66" x="150.413054" y="58.559972" style="stroke: #000000; stroke-width: 0.6"/>
      </g>
     </g>
    </g>
    <g id="text_24">
     <!-- Mean end-to-end latency (s) -->
     <g transform="translate(119.733367 322.020505) rotate(-90) scale(0.1 -0.1)">
      <defs>
       <path id="DejaVuSans-4d" d="M 628 4666 
L 1569 4666 
L 2759 1491 
L 3956 4666 
L 4897 4666 
L 4897 0 
L 4281 0 
L 4281 4097 
L 3078 897 
L 2444 897 
L 1241 4097 
L 1241 0 
L 628 0 
L 628 4666 
z
" transform="scale(0.015625)"/>
       <path id="DejaVuSans-2d" d="M 313 2009 
L 1997 2009 
L 1997 1497 
L 313 1497 
L 313 2009 
z
" transform="scale(0.015625)"/>
       <path id="DejaVuSans-79" d="M 2059 -325 
Q 1816 -950 1584 -1140 
Q 1353 -1331 966 -1331 
L 506 -1331 
L 506 -850 
L 844 -850 
Q 1081 -850 1212 -737 
Q 1344 -625 1503 -206 
L 1606 56 
L 191 3500 
L 800 3500 
L 1894 763 
L 2988 3500 
L 3597 3500 
L 2059 -325 
z
" transform="scale(0.015625)"/>
       <path id="DejaVuSans-28" d="M 1984 4856 
Q 1566 4138 1362 3434 
Q 1159 2731 1159 2009 
Q 1159 1288 1364 580 
Q 1569 -128 1984 -844 
L 1484 -844 
Q 1016 -109 783 600 
Q 550 1309 550 2009 
Q 550 2706 781 3412 
Q 1013 4119 1484 4856 
L 1984 4856 
z
" transform="scale(0.015625)"/>
       <path id="DejaVuSans-3bc" d="M 544 -1331 
L 544 3500 
L 1119 3500 
L 1119 1325 
Q 1119 872 1334 640 
Q 1550 409 1972 409 
Q 2434 409 2667 671 
Q 2900 934 2900 1459 
L 2900 3500 
L 3475 3500 
L 3475 806 
Q 3475 619 3529 530 
Q 3584 441 3700 441 
Q 3728 441 3778 458 
Q 3828 475 3916 513 
L 3916 50 
Q 3788 -22 3673 -56 
Q 3559 -91 3450 -91 
Q 3234 -91 3106 31 
Q 2978 153 2931 403 
Q 2775 156 2548 32 
Q 2322 -91 2016 -91 
Q 1697 -91 1473 31 
Q 1250 153 1119 397 
L 1119 -1331 
L 544 -1331 
z
" transform="scale(0.015625)"/>
       <path id="DejaVuSans-29" d="M 513 4856 
L 1013 4856 
Q 1481 4119 1714 3412 
Q 1947 2706 1947 2009 
Q 1947 1309 1714 600 
Q 1481 -109 1013 -844 
L 513 -844 
Q 928 -128 1133 580 
Q 1338 1288 1338 2009 
Q 1338 2731 1133 3434 
Q 928 4138 513 4856 
z
" transform="scale(0.015625)"/>
      </defs>
      <use xlink:href="#DejaVuSans-4d"/>
      <use xlink:href="#DejaVuSans-65" x="86.279297"/>
      <use xlink:href="#DejaVuSans-61" x="147.802734"/>
      <use xlink:href="#DejaVuSans-6e" x="209.082031"/>
      <use xlink:href="#DejaVuSans-20" x="272.460938"/>
      <use xlink:href="#DejaVuSans-65" x="304.248047"/>
      <use xlink:href="#DejaVuSans-6e" x="365.771484"/>
      <use xlink:href="#DejaVuSans-64" x="429.150391"/>
      <use xlink:href="#DejaVuSans-2d" x="492.626953"/>
      <use xlink:href="#DejaVuSans-74" x="528.710938"/>
      <use xlink:href="#DejaVuSans-6f" x="567.919922"/>
      <use xlink:href="#DejaVuSans-2d" x="630.976562"/>
      <use xlink:href="#DejaVuSans-65" x="667.060547"/>
      <use xlink:href="#DejaVuSans-6e" x="728.583984"/>
      <use xlink:href="#DejaVuSans-64" x="791.962891"/>
      <use xlink:href="#DejaVuSans-20" x="855.439453"/>
      <use xlink:href="#DejaVuSans-6c" x="887.226562"/>
      <use xlink:href="#DejaVuSans-61" x="915.009766"/>
      <use xlink:href="#DejaVuSans-74" x="976.289062"/>
      <use xlink:href="#DejaVuSans-65" x="1015.498047"/>
      <use xlink:href="#DejaVuSans-6e" x="1077.021484"/>
      <use xlink:href="#DejaVuSans-63" x="1140.400391"/>
      <use xlink:href="#DejaVuSans-79" x="1195.380859"/>
      <use xlink:href="#DejaVuSans-20" x="1254.560547"/>
      <use xlink:href="#DejaVuSans-28" x="1286.347656"/>
      <use xlink:href="#DejaVuSans-3bc" x="1325.361328"/>
      <use xlink:href="#DejaVuSans-73" x="1388.984375"/>
      <use xlink:href="#DejaVuSans-29" x="1441.083984"/>
     </g>
    </g>
   </g>
   <g id="patch_75">
    <path d="M 150.413054 446.918073 
L 150.413054 49.112 
" style="fill: none; stroke: #000000; stroke-width: 0.8; stroke-linejoin: miter; stroke-linecap: square"/>
   </g>
   <g id="patch_76">
    <path d="M 1350 446.918073 
L 1350 49.112 
" style="fill: none; stroke: #000000; stroke-width: 0.8; stroke-linejoin: miter; stroke-linecap: square"/>
   </g>
   <g id="patch_77">
    <path d="M 150.413054 446.918073 
L 1350 446.918073 
" style="fill: none; stroke: #000000; stroke-width: 0.8; stroke-linejoin: miter; stroke-linecap: square"/>
   </g>
   <g id="patch_78">
    <path d="M 150.413054 49.112 
L 1350 49.112 
" style="fill: none; stroke: #000000; stroke-width: 0.8; stroke-linejoin: miter; stroke-linecap: square"/>
   </g>
   <g id="text_25">
    <!-- End-to-end latency comparison -->
    <g transform="translate(656.147152 43.112) scale(0.12 -0.12)">
     <defs>
      <path id="DejaVuSans-70" d="M 1159 525 
L 1159 -1331 
L 581 -1331 
L 581 3500 
L 1159 3500 
L 1159 2969 
Q 1341 3281 1617 3432 
Q 1894 3584 2278 3584 
Q 2916 3584 3314 3078 
Q 3713 2572 3713 1747 
Q 3713 922 3314 415 
Q 2916 -91 2278 -91 
Q 1894 -91 1617 61 
Q 1341 213 1159 525 
z
M 3116 1747 
Q 3116 2381 2855 2742 
Q 2594 3103 2138 3103 
Q 1681 3103 1420 2742 
Q 1159 2381 1159 1747 
Q 1159 1113 1420 752 
Q 1681 391 2138 391 
Q 2594 391 2855 752 
Q 3116 1113 3116 1747 
z
" transform="scale(0.015625)"/>
     </defs>
     <use xlink:href="#DejaVuSans-45"/>
     <use xlink:href="#DejaVuSans-6e" x="63.183594"/>
     <use xlink:href="#DejaVuSans-64" x="126.5625"/>
     <use xlink:href="#DejaVuSans-2d" x="190.039062"/>
     <use xlink:href="#DejaVuSans-74" x="226.123047"/>
     <use xlink:href="#DejaVuSans-6f" x="265.332031"/>
     <use xlink:href="#DejaVuSans-2d" x="328.388672"/>
     <use xlink:href="#DejaVuSans-65" x="364.472656"/>
     <use xlink:href="#DejaVuSans-6e" x="425.996094"/>
     <use xlink:href="#DejaVuSans-64" x="489.375"/>
     <use xlink:href="#DejaVuSans-20" x="552.851562"/>
     <use xlink:href="#DejaVuSans-6c" x="584.638672"/>
     <use xlink:href="#DejaVuSans-61" x="612.421875"/>
     <use xlink:href="#DejaVuSans-74" x="673.701172"/>
     <use xlink:href="#DejaVuSans-65" x="712.910156"/>
     <use xlink:href="#DejaVuSans-6e" x="774.433594"/>
     <use xlink:href="#DejaVuSans-63" x="837.8125"/>
     <use xlink:href="#DejaVuSans-79" x="892.792969"/>
     <use xlink:href="#DejaVuSans-20" x="951.972656"/>
     <use xlink:href="#DejaVuSans-63" x="983.759766"/>
     <use xlink:href="#DejaVuSans-6f" x="1038.740234"/>
     <use xlink:href="#DejaVuSans-6d" x="1099.921875"/>
     <use xlink:href="#DejaVuSans-70" x="1197.333984"/>
     <use xlink:href="#DejaVuSans-61" x="1260.810547"/>
     <use xlink:href="#DejaVuSans-72" x="1322.089844"/>
     <use xlink:href="#DejaVuSans-69" x="1363.203125"/>
     <use xlink:href="#DejaVuSans-73" x="1390.986328"/>
     <use xlink:href="#DejaVuSans-6f" x="1443.085938"/>
     <use xlink:href="#DejaVuSans-6e" x="1504.267578"/>
    </g>
   </g>
   <g id="legend_1">
    <g id="patch_79">
     <path d="M 1135.659375 115.8245 
L 1345 115.8245 
L 1345 54.112 
L 1135.659375 54.112 
z
" style="fill: #ffffff; opacity: 0.8; stroke: #cccccc; stroke-linejoin: miter"/>
    </g>
    <g id="patch_80">
     <path d="M 1139.659375 65.710437 
L 1159.659375 65.710437 
L 1159.659375 58.710437 
L 1139.659375 58.710437 
z
" style="fill: #006ba4"/>
    </g>
    <g id="text_26">
     <!-- No security -->
     <g transform="translate(1167.659375 65.710437) scale(0.1 -0.1)">
      <defs>
       <path id="DejaVuSans-4e" d="M 628 4666 
L 1478 4666 
L 3547 763 
L 3547 4666 
L 4159 4666 
L 4159 0 
L 3309 0 
L 1241 3903 
L 1241 0 
L 628 0 
L 628 4666 
z
" transform="scale(0.015625)"/>
      </defs>
      <use xlink:href="#DejaVuSans-4e"/>
      <use xlink:href="#DejaVuSans-6f" x="74.804688"/>
      <use xlink:href="#DejaVuSans-20" x="135.986328"/>
      <use xlink:href="#DejaVuSans-73" x="167.773438"/>
      <use xlink:href="#DejaVuSans-65" x="219.873047"/>
      <use xlink:href="#DejaVuSans-63" x="281.396484"/>
      <use xlink:href="#DejaVuSans-75" x="336.376953"/>
      <use xlink:href="#DejaVuSans-72" x="399.755859"/>
      <use xlink:href="#DejaVuSans-69" x="440.869141"/>
      <use xlink:href="#DejaVuSans-74" x="468.652344"/>
      <use xlink:href="#DejaVuSans-79" x="507.861328"/>
     </g>
    </g>
    <g id="patch_81">
     <path d="M 1139.659375 80.388562 
L 1159.659375 80.388562 
L 1159.659375 73.388562 
L 1139.659375 73.388562 
z
" style="fill: #ff800e"/>
    </g>
    <g id="text_27">
     <!-- Our method -->
     <g transform="translate(1167.659375 80.388562) scale(0.1 -0.1)">
      <defs>
       <path id="DejaVuSans-4f" d="M 2522 4238 
Q 1834 4238 1429 3725 
Q 1025 3213 1025 2328 
Q 1025 1447 1429 934 
Q 1834 422 2522 422 
Q 3209 422 3611 934 
Q 4013 1447 4013 2328 
Q 4013 3213 3611 3725 
Q 3209 4238 2522 4238 
z
M 2522 4750 
Q 3503 4750 4090 4092 
Q 4678 3434 4678 2328 
Q 4678 1225 4090 567 
Q 3503 -91 2522 -91 
Q 1538 -91 948 565 
Q 359 1222 359 2328 
Q 359 3434 948 4092 
Q 1538 4750 2522 4750 
z
" transform="scale(0.015625)"/>
      </defs>
      <use xlink:href="#DejaVuSans-4f"/>
      <use xlink:href="#DejaVuSans-75" x="78.710938"/>
      <use xlink:href="#DejaVuSans-72" x="142.089844"/>
      <use xlink:href="#DejaVuSans-20" x="183.203125"/>
      <use xlink:href="#DejaVuSans-6d" x="214.990234"/>
      <use xlink:href="#DejaVuSans-65" x="312.402344"/>
      <use xlink:href="#DejaVuSans-74" x="373.925781"/>
      <use xlink:href="#DejaVuSans-68" x="413.134766"/>
      <use xlink:href="#DejaVuSans-6f" x="476.513672"/>
      <use xlink:href="#DejaVuSans-64" x="537.695312"/>
     </g>
    </g>
    <g id="patch_82">
     <path d="M 1139.659375 95.066687 
L 1159.659375 95.066687 
L 1159.659375 88.066687 
L 1139.659375 88.066687 
z
" style="fill: #ababab"/>
    </g>
    <g id="text_28">
     <!-- SipHash-2-4 (64-bit MAC) -->
     <g transform="translate(1167.659375 95.066687) scale(0.1 -0.1)">
      <defs>
       <path id="DejaVuSans-48" d="M 628 4666 
L 1259 4666 
L 1259 2753 
L 3553 2753 
L 3553 4666 
L 4184 4666 
L 4184 0 
L 3553 0 
L 3553 2222 
L 1259 2222 
L 1259 0 
L 628 0 
L 628 4666 
z
" transform="scale(0.015625)"/>
       <path id="DejaVuSans-36" d="M 2113 2584 
Q 1688 2584 1439 2293 
Q 1191 2003 1191 1497 
Q 1191 994 1439 701 
Q 1688 409 2113 409 
Q 2538 409 2786 701 
Q 3034 994 3034 1497 
Q 3034 2003 2786 2293 
Q 2538 2584 2113 2584 
z
M 3366 4563 
L 3366 3988 
Q 3128 4100 2886 4159 
Q 2644 4219 2406 4219 
Q 1781 4219 1451 3797 
Q 1122 3375 1075 2522 
Q 1259 2794 1537 2939 
Q 1816 3084 2150 3084 
Q 2853 3084 3261 2657 
Q 3669 2231 3669 1497 
Q 3669 778 3244 343 
Q 2819 -91 2113 -91 
Q 1303 -91 875 529 
Q 447 1150 447 2328 
Q 447 3434 972 4092 
Q 1497 4750 2381 4750 
Q 2619 4750 2861 4703 
Q 3103 4656 3366 4563 
z
" transform="scale(0.015625)"/>
       <path id="DejaVuSans-62" d="M 3116 1747 
Q 3116 2381 2855 2742 
Q 2594 3103 2138 3103 
Q 1681 3103 1420 2742 
Q 1159 2381 1159 1747 
Q 1159 1113 1420 752 
Q 1681 391 2138 391 
Q 2594 391 2855 752 
Q 3116 1113 3116 1747 
z
M 1159 2969 
Q 1341 3281 1617 3432 
Q 1894 3584 2278 3584 
Q 2916 3584 3314 3078 
Q 3713 2572 3713 1747 
Q 3713 922 3314 415 
Q 2916 -91 2278 -91 
Q 1894 -91 1617 61 
Q 1341 213 1159 525 
L 1159 0 
L 581 0 
L 581 4863 
L 1159 4863 
L 1159 2969 
z
" transform="scale(0.015625)"/>
      </defs>
      <use xlink:href="#DejaVuSans-53"/>
      <use xlink:href="#DejaVuSans-69" x="63.476562"/>
      <use xlink:href="#DejaVuSans-70" x="91.259766"/>
      <use xlink:href="#DejaVuSans-48" x="154.736328"/>
      <use xlink:href="#DejaVuSans-61" x="229.931641"/>
      <use xlink:href="#DejaVuSans-73" x="291.210938"/>
      <use xlink:href="#DejaVuSans-68" x="343.310547"/>
      <use xlink:href="#DejaVuSans-2d" x="406.689453"/>
      <use xlink:href="#DejaVuSans-32" x="442.773438"/>
      <use xlink:href="#DejaVuSans-2d" x="506.396484"/>
      <use xlink:href="#DejaVuSans-34" x="542.480469"/>
      <use xlink:href="#DejaVuSans-20" x="606.103516"/>
      <use xlink:href="#DejaVuSans-28" x="637.890625"/>
      <use xlink:href="#DejaVuSans-36" x="676.904297"/>
      <use xlink:href="#DejaVuSans-34" x="740.527344"/>
      <use xlink:href="#DejaVuSans-2d" x="804.150391"/>
      <use xlink:href="#DejaVuSans-62" x="840.234375"/>
      <use xlink:href="#DejaVuSans-69" x="903.710938"/>
      <use xlink:href="#DejaVuSans-74" x="931.494141"/>
      <use xlink:href="#DejaVuSans-20" x="970.703125"/>
      <use xlink:href="#DejaVuSans-4d" x="1002.490234"/>
      <use xlink:href="#DejaVuSans-41" x="1088.769531"/>
      <use xlink:href="#DejaVuSans-43" x="1155.427734"/>
      <use xlink:href="#DejaVuSans-29" x="1225.251953"/>
     </g>
    </g>
    <g id="patch_83">
     <path d="M 1139.659375 109.744812 
L 1159.659375 109.744812 
L 1159.659375 102.744812 
L 1139.659375 102.744812 
z
" style="fill: #595959"/>
    </g>
    <g id="text_29">
     <!-- ChaCha20-Poly1305 (128-bit MAC) -->
     <g transform="translate(1167.659375 109.744812) scale(0.1 -0.1)">
      <defs>
       <path id="DejaVuSans-35" d="M 691 4666 
L 3169 4666 
L 3169 4134 
L 1269 4134 
L 1269 2991 
Q 1406 3038 1543 3061 
Q 1681 3084 1819 3084 
Q 2600 3084 3056 2656 
Q 3513 2228 3513 1497 
Q 3513 744 3044 326 
Q 2575 -91 1722 -91 
Q 1428 -91 1123 -41 
Q 819 9 494 109 
L 494 744 
Q 775 591 1075 516 
Q 1375 441 1709 441 
Q 2250 441 2565 725 
Q 2881 1009 2881 1497 
Q 2881 1984 2565 2268 
Q 2250 2553 1709 2553 
Q 1456 2553 1204 2497 
Q 953 2441 691 2322 
L 691 4666 
z
" transform="scale(0.015625)"/>
       <path id="DejaVuSans-38" d="M 2034 2216 
Q 1584 2216 1326 1975 
Q 1069 1734 1069 1313 
Q 1069 891 1326 650 
Q 1584 409 2034 409 
Q 2484 409 2743 651 
Q 3003 894 3003 1313 
Q 3003 1734 2745 1975 
Q 2488 2216 2034 2216 
z
M 1403 2484 
Q 997 2584 770 2862 
Q 544 3141 544 3541 
Q 544 4100 942 4425 
Q 1341 4750 2034 4750 
Q 2731 4750 3128 4425 
Q 3525 4100 3525 3541 
Q 3525 3141 3298 2862 
Q 3072 2584 2669 2484 
Q 3125 2378 3379 2068 
Q 3634 1759 3634 1313 
Q 3634 634 3220 271 
Q 2806 -91 2034 -91 
Q 1263 -91 848 271 
Q 434 634 434 1313 
Q 434 1759 690 2068 
Q 947 2378 1403 2484 
z
M 1172 3481 
Q 1172 3119 1398 2916 
Q 1625 2713 2034 2713 
Q 2441 2713 2670 2916 
Q 2900 3119 2900 3481 
Q 2900 3844 2670 4047 
Q 2441 4250 2034 4250 
Q 1625 4250 1398 4047 
Q 1172 3844 1172 3481 
z
" transform="scale(0.015625)"/>
      </defs>
      <use xlink:href="#DejaVuSans-43"/>
      <use xlink:href="#DejaVuSans-68" x="69.824219"/>
      <use xlink:href="#DejaVuSans-61" x="133.203125"/>
      <use xlink:href="#DejaVuSans-43" x="194.482422"/>
      <use xlink:href="#DejaVuSans-68" x="264.306641"/>
      <use xlink:href="#DejaVuSans-61" x="327.685547"/>
      <use xlink:href="#DejaVuSans-32" x="388.964844"/>
      <use xlink:href="#DejaVuSans-30" x="452.587891"/>
      <use xlink:href="#DejaVuSans-2d" x="516.210938"/>
      <use xlink:href="#DejaVuSans-50" x="552.294922"/>
      <use xlink:href="#DejaVuSans-6f" x="608.972656"/>
      <use xlink:href="#DejaVuSans-6c" x="670.154297"/>
      <use xlink:href="#DejaVuSans-79" x="697.9375"/>
      <use xlink:href="#DejaVuSans-31" x="757.117188"/>
      <use xlink:href="#DejaVuSans-33" x="820.740234"/>
      <use xlink:href="#DejaVuSans-30" x="884.363281"/>
      <use xlink:href="#DejaVuSans-35" x="947.986328"/>
      <use xlink:href="#DejaVuSans-20" x="1011.609375"/>
      <use xlink:href="#DejaVuSans-28" x="1043.396484"/>
      <use xlink:href="#DejaVuSans-31" x="1082.410156"/>
      <use xlink:href="#DejaVuSans-32" x="1146.033203"/>
      <use xlink:href="#DejaVuSans-38" x="1209.65625"/>
      <use xlink:href="#DejaVuSans-2d" x="1273.279297"/>
      <use xlink:href="#DejaVuSans-62" x="1309.363281"/>
      <use xlink:href="#DejaVuSans-69" x="1372.839844"/>
      <use xlink:href="#DejaVuSans-74" x="1400.623047"/>
      <use xlink:href="#DejaVuSans-20" x="1439.832031"/>
      <use xlink:href="#DejaVuSans-4d" x="1471.619141"/>
      <use xlink:href="#DejaVuSans-41" x="1557.898438"/>
      <use xlink:href="#DejaVuSans-43" x="1624.556641"/>
      <use xlink:href="#DejaVuSans-29" x="1694.380859"/>
     </g>
    </g>
   </g>
  </g>
 </g>
 <defs>
  <clipPath id="pde02948422">
   <rect x="150.413054" y="49.112" width="1199.586946" height="397.806073"/>
  </clipPath>
 </defs>
</svg>
